<svg width="900" height="900" xmlns="http://www.w3.org/2000/svg"><g fill="none" fill-rule="evenodd"><path d="M0 0h30v30H0z"/><path d="M24.534 22.535h-.196v.537h-.135v-.537h-.197v-.117h.528v.117zm.894.537h-.133v-.52h-.003l-.19.52h-.128l-.184-.52h-.004v.52h-.133v-.653h.232l.152.426h.004l.158-.426h.23v.653zm-14.006-2.4l2.496-4.19.216.849c-.129.22-2.058 3.559-2.058 3.559l2.977-2.46 2.11 2.558s-.97-3.238-1.035-3.459l.578-.924.883 4.075-1.764 2.426h7.58L19.784 6.9l-5.043.003L4.5 23.106h8.08l-1.158-2.434zm2.585-4.34l1.59-2.67h.471l.579 2.67h-2.64z" fill="#E3D4AD" fill-rule="nonzero"/><path fill="#000" fill-rule="nonzero" d="M15.495 7.538h3.754l3.326 14.929h-5.402l1.207-1.633-1.733-7.75h-1.432l-4.622 7.602.862 1.774H6.102l-.525.326h6.455l-1.021-2.106 4.383-7.31h.955l1.655 7.383-1.487 2.034h6.477L19.529 7.21l-4.251-.003z"/><path fill="#000" fill-rule="nonzero" d="M9.91 19.741l.56-.353-.996-2.369 3.17-1.986-1.089-1.954 3.067-1.48-.99-1.744 2.361-1.05-.862-1.267-.2-.293L5.083 22.78z"/><path d="M14.486 17.38l-1.209 2.089 1.82-1.504 1.283 1.555-.61-2.04.512-.817h-1.978l.182.716z" fill="#A71930" fill-rule="nonzero"/><path fill="#A71930" fill-rule="nonzero" d="M10.593 20.686l4.622-7.603 1.432.001 1.733 7.75-1.207 1.633h5.402l-3.326-14.93h-3.754l.925 1.421-2.333 1.05 1.005 1.74-3.065 1.467 1.026 1.901-3.172 2 .977 2.396-4.756 2.948h5.353z"/><path d="M30 30h30v30H30z"/><path d="M53.959 47.458h-.172v.484h-.118v-.484h-.171v-.104h.46v.104zm.78.484h-.116v-.469h-.003l-.165.469h-.113l-.16-.469h-.002v.469h-.117v-.588h.202l.132.382h.004l.138-.382h.2v.588z" fill="#13274F" fill-rule="nonzero"/><path d="M54.751 49.207c-.258-.25-.678-.656-1.196-.403-.389.188-.46.591-.46.895 0 .114.01.214.018.285.01.1.014.195.014.287 0 .87-.434 1.393-.91 1.472-.334.014-1.562-1.04-2.153-3.428 2.257-.85 3.09-2.165 3.368-3.164.098-.353.14-.696.14-1.01 0-.753-.23-1.356-.468-1.62-.131-.145-.53-.588-1.06-.418-.542.173-.613.784-.639 1.017-.103.9-.622 1.573-1.634 2.108.108-2.626 1.047-5.467 2.764-8.29.137-.226.35-.577.35-.925a.716.716 0 0 0-.218-.524c-.45-.455-1.037-.103-1.39.107l-.102.061c-5.011 2.607-7.537 7.674-9.383 11.372l-.064.13c-2.847 1.083-3.352 3.033-3.357 3.052-.02.089-.051.225-.051.38 0 .207.058.442.28.62.13.104.267.143.4.156a1.05 1.05 0 0 1-.484.173c-1.491.073-1.95-1.221-1.959-1.248-.029-.776-.485-.932-.689-.961-.76-.111-1.037.83-1.154 1.235-.262.889-.033 1.957.596 2.786.744.981 1.938 1.511 3.361 1.492 2.43-.034 3.994-2.701 5.264-5.3.761-.19 1.41-.28 2.142-.377l1.281-.194c.644 2.633 1.847 4.579 3.37 5.375.937.49 1.95.527 2.927.104.913-.395 1.554-1.27 1.761-2.404.204-1.117-.064-2.259-.665-2.84zm-9.34-2.79c.458-.961.948-1.922 1.474-2.746-.012.3-.03.6-.03.894 0 .542.044 1.069.084 1.596-.463.094-.972.18-1.528.256z" fill="#13274F" fill-rule="nonzero"/><path d="M54.284 49.69c-.284-.274-.585-.573-.504.226.14 1.371-.553 2.345-1.455 2.492-.87.14-2.497-1.533-3.054-4.524 4.477-1.351 3.7-4.506 3.334-4.912-.312-.345-.468-.34-.532.224-.164 1.43-1.155 2.4-2.986 3.068-.108-2.597.577-5.898 2.874-9.675.687-1.129-.228-.467-.477-.336-4.97 2.587-7.396 7.686-9.265 11.428-2.48.842-3.131 2.415-3.193 2.683-.084.362-.05.434.392.224.623-.298 1.173-.54 1.672-.754-.807 1.401-1.588 2.33-2.54 2.377-1.902.094-2.66-1.561-2.66-1.848 0-.533-.253-.56-.532.392-.38 1.29.608 3.452 3.304 3.415 2.043-.028 3.471-2.43 4.808-5.202 1.557-.433 2.563-.413 4.399-.753.842 4.193 3.115 6.66 5.52 5.62 1.667-.721 1.735-3.333.895-4.144zm-6.644-2.993c-.954.226-2.039.396-3.295.53l-.06.007c1.05-2.257 2.112-4.48 3.449-5.662a21.209 21.209 0 0 0-.095 5.125z" fill="#CE1141" fill-rule="nonzero"/><path d="M60 60h30v30H60z"/><path d="M73.397 84.81c-2.332 0-4.515-.843-5.986-2.331-1.323-1.323-2.018-3.109-2.034-5.16l-.662.116-.033-.115c-.016-.083-.48-2.1 1.737-3.886-.596-1.39-1.158-3.936 1.157-5.903.248-.248.413-.348.53-.447.065-.05.115-.082.165-.115.132-.364.396-.695.529-.827.727-.76 1.653-.877 1.686-.893.133-.017.265-.033.397-.033a2.09 2.09 0 0 1 1.306.43c.017.016.017.016.034.016.082.017.181.033.314.033.132 0 .314.017.545.033 1.307.166 2.415.778 3.307 1.786.298-.033 1.489-.198 2.084-.33.298-.067.612-.133.91-.199 1.455-.314 2.827-.612 3.82-.612.148 0 .28 0 .396.017h.016c.711.132 1.257.512 1.489 1.075.496 1.19.182 2.116-1.075 3.125-1.505 1.207-3.654 1.835-4.878 2.116.016.1.05.281.132.579.298-.033.612-.033.91-.033 2.447 0 4.018.893 4.117 1.77.016.297-.198.644-.711.793-2.2.579-2.646 1.654-3.224 4.167-.348 1.488-1.224 2.728-2.58 3.588-1.207.81-2.778 1.24-4.398 1.24" fill="#DF4601" fill-rule="nonzero"/><path d="M70.883 65.348c.728 0 1.141.347 1.29.446.198.067.413.017.893.083a5.089 5.089 0 0 1 3.274 1.803s1.472-.199 2.166-.331c1.753-.364 3.522-.794 4.696-.794.132 0 .265 0 .38.017.744.132 1.207.545 1.39 1.008.512 1.224.099 2.067-1.026 2.977-1.405 1.124-3.456 1.786-4.927 2.133 0 0 .016.231.181.81.348-.033.678-.05.993-.05 2.38 0 3.902.86 3.985 1.654.016.231-.166.53-.629.661-2.265.596-2.745 1.737-3.323 4.266-.711 3.11-3.72 4.697-6.846 4.697-3.886 0-7.92-2.448-7.904-7.508l-.694.116s-.496-2.05 1.769-3.82c-.413-.925-1.439-3.703 1.075-5.836.397-.38.545-.43.727-.58.116-.346.364-.677.513-.81a3.016 3.016 0 0 1 1.604-.843.876.876 0 0 1 .413-.099m0-.248c-.132 0-.28.017-.413.033-.083.017-1.009.149-1.753.926a2.733 2.733 0 0 0-.546.843c-.033.033-.082.067-.132.1-.132.082-.281.198-.546.446-1.14.96-1.72 2.15-1.72 3.555 0 .76.166 1.571.497 2.398-1.125.926-1.538 1.901-1.687 2.596-.165.777-.033 1.34-.033 1.356l.05.231.231-.033.414-.066c.05 2.017.76 3.77 2.083 5.093 1.505 1.505 3.72 2.365 6.069 2.365 1.637 0 3.224-.43 4.464-1.224 1.373-.876 2.282-2.15 2.63-3.671.578-2.513.991-3.522 3.124-4.068.596-.165.844-.578.81-.926-.049-.496-.528-.975-1.29-1.323-.545-.248-1.52-.545-2.959-.545-.264 0-.529.016-.81.033-.033-.149-.066-.248-.083-.347 1.257-.298 3.324-.943 4.795-2.117 1.307-1.042 1.637-2.017 1.108-3.274-.248-.595-.826-1.025-1.587-1.157h-.033c-.132-.017-.265-.017-.414-.017-1.008 0-2.38.298-3.836.612-.297.066-.612.132-.91.198-.561.116-1.636.265-2 .314-.86-1.041-1.984-1.637-3.307-1.818-.232-.033-.413-.033-.562-.033-.116 0-.199 0-.265-.017 0 0-.016 0-.016-.017a2.228 2.228 0 0 0-1.373-.446" fill="#FFF" fill-rule="nonzero"/><path d="M81.25 75.07c-2.446 1.357-2.281 3.11-5.026 3.837-3.109.81-5.622-1.273-3.803-1.687.43-.082.48-.347.017-.264-1.092.066-2.497.628-1.175 2.81 0 0 .182.084.265 0 0 0-.496-1.107-.116-1.421 1.753 1.67 5.655 1.968 8.103-1.29a6.375 6.375 0 0 1 2.711-2.1c-1.488-.364-3.174-.397-4.1-.116-.116-1.471-.199-1.885-.48-2.513-.132-.281-.149-.446.496-.628.397-.116 2.05-.496 3.473-1.141 1.008-.463 1.703-.976 1.885-1.158.149-.132.678-.727.48-1.207-.2-.48-.679-.512-1.257-.463-.497.05-.728.066-3.82.744-1.62.33-2.547.347-3.125.53 0 0-.761-1.853-3.29-1.935-.332 0-.86-.066-1.125-.331-.281-.215-.777-.182-1.19.05-.315.165-.58.43-.63.678-.115.43-.264.396-.859.892-.744.612-2.447 1.968-.562 5.424-1.72.992-1.968 2.15-1.968 2.15l.794-.05c-.116.215-.215.926-.215 1.24-.017 1.803.529 3.29 1.637 4.415 1.207 1.224 3.042 1.935 4.993 1.935 1.373 0 2.696-.364 3.721-1.009a4.653 4.653 0 0 0 1.19-1.075c-3.935 2.448-7.54.364-8.267-1.72-.711-2.033.562-3.604 2.182-3.224 2.266.546 3.456.232 3.804-.86.28.1.926.083 1.322-.115.596-.265 1.968-.76 3.936-.397" fill="#000" fill-rule="nonzero"/><path d="M69.99 67.795l1.24-.463s-.926-.71-1.24.463m2.91 3.324s1.902-1.472 4.035-1.72c1.984-.248 5.143-.942 5.143-.942s-1.538.926-3.076 2c-1.67.993-2.894 1.406-4.828 1.356-1.257-.165-2.084-.165-1.274-.694m7.243-.711s3.109-2.166 3.208-2c.281.38-1.273 1.355-3.208 2" fill="#DF4601" fill-rule="nonzero"/><path d="M67.874 73.318s1.29-.149 2.629-.777l-2.398 1.257-.231-.48zm7.226.926c.28.876.082 1.736-.447 1.902-.529.182-1.207-.397-1.488-1.274-.281-.876-.083-1.736.447-1.901.545-.182 1.207.397 1.488 1.273z" fill="#FFF" fill-rule="nonzero"/><path d="M74.157 74.64c.232.398.182.86-.082 1.01-.265.148-.662-.067-.893-.463-.232-.397-.182-.86.082-1.009.265-.149.662.05.893.463" fill="#000" fill-rule="nonzero"/><path d="M77.332 73.4c.231.894-.017 1.737-.562 1.886-.546.149-1.174-.463-1.422-1.356-.215-.893.033-1.736.578-1.885.546-.149 1.174.463 1.406 1.356" fill="#FFF" fill-rule="nonzero"/><path d="M76.29 73.847c.182.38.133.794-.132.926-.248.116-.612-.082-.794-.48-.182-.38-.132-.793.133-.925.248-.116.611.099.793.48" fill="#000" fill-rule="nonzero"/><path d="M72.85 68.738c.249.149.48.149.762 0 .05.182.099.43.099.628 0 .165-.017.38-.1.513a.244.244 0 0 1-.181.132c-.265.05-.496-.347-.58-.645-.049-.198-.049-.43 0-.628zm.728-.116c-.148.066-.264.066-.38.017a.611.611 0 0 1-.314-.298.368.368 0 0 1 .016-.347c.034-.05.116-.083.199-.083.198 0 .38.38.48.711zm.38-.33c-.032.065-.065.132-.115.181-.198-.545-.48-.827-.76-.81-.166.017-.315.083-.397.215a.528.528 0 0 0-.067.496c-.148.364-.132.794-.033 1.124.116.348.281.596.513.711a.531.531 0 0 0 .413.05c.166-.05.281-.165.364-.347.182-.38.149-.943.017-1.323a.63.63 0 0 0 .182-.265l-.116-.033zm.315.28c0-.033 0-.05.016-.099h-.016c-.017 0-.033.033-.05.066-.033.067-.05.166-.016.215 0 .017.033.017.082 0a.036.036 0 0 0 .034-.033c.033-.033.033-.099.016-.132-.016-.017-.033-.017-.066-.017zm.513.298l-.116-.1-.033-.032a.09.09 0 0 1-.05-.083v-.016h-.016l-.133.099a.862.862 0 0 0-.033.231l-.016.265c-.017.165-.05.297-.133.347l-.033.149h.017c.1-.05.165-.149.215-.314l.016-.15.017-.131v-.033l.016-.133c0-.033.017-.066.017-.099v-.016l.017.016c.033.05.132.132.181.165l.017.017h-.017c-.165.066-.198.182-.165.231a.36.36 0 0 0 .066.083c.033.017.083.017.132-.016.1-.05.166-.166.133-.281v-.017l-.017-.05a.293.293 0 0 0-.082-.132zm-.017.33a.13.13 0 0 1-.066.067c-.033.016-.066 0-.083-.017-.033-.016-.033-.05-.016-.082.016-.033.066-.066.148-.1h.017s0 .017.017.017c0 .05 0 .1-.017.116z" fill="#DF4601" fill-rule="nonzero"/><path d="M79.217 83.785h-.231v.628h-.15v-.628h-.23v-.132h.611v.132zm1.058.628h-.149v-.611l-.231.611h-.149l-.215-.611v.611h-.149v-.777h.265l.182.496.182-.496h.264v.777z" fill="#FFF" fill-rule="nonzero"/><path d="M90 90h30v30H90z"/><path d="M110.919 106.813c-.242-.858-.51-1.45-.966-1.865.455-.413.724-1.006.966-1.865.297-1.058.446-1.835 1.602-2.354-1.734-.798-1.9-1.77-2.38-3.053-.529-1.413-2.247-3.176-4.733-3.176a4.934 4.934 0 0 0-2.794.855 3.042 3.042 0 0 0-2.096-.84c-1.7 0-3.078 1.401-3.078 3.128 0 .636.186 1.229.505 1.722.188-.774.778-1.368 1.402-1.359.652.01 1.196.633 1.197 1.411l-.002 3.144c0 1.151-1.176 2.067-2.7 2.387 1.524.322 2.7 1.237 2.7 2.387l.001 3.145c0 .777-.544 1.4-1.196 1.41-.624.01-1.214-.585-1.402-1.358a3.153 3.153 0 0 0-.505 1.72c0 1.729 1.378 3.13 3.078 3.13a3.03 3.03 0 0 0 2.096-.842 4.93 4.93 0 0 0 2.794.854c2.486 0 4.204-1.758 4.734-3.176.48-1.28.645-2.252 2.38-3.051-1.157-.517-1.306-1.294-1.603-2.354m-3.98 3.424c0 .697-.663 1.277-1.48 1.277-.552 0-1.017-.204-1.288-.539v-3.757c.27-.336.736-.525 1.288-.525.817 0 1.48.565 1.48 1.263 0 .457-.395.867-.85 1.14.455.274.85.684.85 1.14m0-8.31c0 .698-.663 1.263-1.48 1.263-.552 0-1.018-.19-1.288-.524v-3.758c.27-.336.735-.523 1.288-.523.817 0 1.48.564 1.48 1.26 0 .458-.395.87-.851 1.141.456.275.851.684.851 1.14" fill="#FFF" fill-rule="nonzero"/><path d="M105.41 97.416c-.954 0-1.782.474-2.202 1.168v4.402c.42.695 1.248 1.167 2.202 1.167 1.378 0 2.493-.986 2.493-2.2 0-.429-.139-.829-.38-1.168.241-.338.38-.74.38-1.169 0-1.215-1.115-2.2-2.492-2.2m1.874 4.537c0 .87-.841 1.58-1.875 1.58-.665 0-1.25-.292-1.583-.734V98.77c.332-.44.918-.734 1.583-.734 1.034 0 1.875.708 1.875 1.58 0 .463-.236.879-.613 1.17.377.286.613.704.613 1.167" fill="#0D2B56" fill-rule="nonzero"/><path d="M110.699 107.315c-.19-.557-.254-1.628-1.323-2.368 1.068-.74 1.134-1.81 1.323-2.366.31-.903.513-1.457 1.17-1.848-2.34-1.355-1.21-2.586-3.15-4.526a4.657 4.657 0 0 0-6.136-.398 2.752 2.752 0 0 0-4.644 2.765c.263-.544.784-.915 1.385-.915.863 0 1.563.767 1.563 1.71v3.13c0 .33-.11 1.787-1.985 2.448 1.876.663 1.985 2.12 1.985 2.448v3.13c0 .945-.7 1.709-1.563 1.709-.601 0-1.122-.368-1.385-.913a2.752 2.752 0 0 0 4.645 2.765 4.66 4.66 0 0 0 6.135-.4c1.94-1.938.811-3.17 3.15-4.526-.656-.388-.86-.943-1.17-1.845m-1.212 3.9c-.22.647-.429 1.259-1.205 2.035-1.575 1.576-4.188 1.523-5.765-.052-.338.734-1.13 1.192-1.99 1.192a2.136 2.136 0 0 1-2.096-1.742c.271.134.575.206.893.206 1.203 0 2.182-1.045 2.182-2.33v-3.129c0-.543-.208-1.648-1.28-2.448a3.113 3.113 0 0 0 1.28-2.447V99.37c0-1.282-.98-2.327-2.182-2.327-.318 0-.622.073-.893.202a2.136 2.136 0 0 1 2.097-1.74c.86 0 1.65.458 1.989 1.192 1.577-1.575 4.19-1.627 5.765-.051.776.775.985 1.386 1.205 2.035.238.695.483 1.412 1.376 2.118-.362.449-.545.987-.748 1.583-.045.128-.078.269-.117.414-.109.43-.538 1.56-1.464 2.152.926.595 1.355 1.722 1.464 2.151.039.148.073.287.117.415.203.596.386 1.136.748 1.583-.893.708-1.138 1.423-1.376 2.119" fill="#0D2B56" fill-rule="nonzero"/><path d="M105.41 105.742c-.954 0-1.782.473-2.202 1.165v4.405c.42.694 1.248 1.166 2.202 1.166 1.378 0 2.493-.986 2.493-2.2 0-.429-.139-.829-.38-1.167.241-.342.38-.74.38-1.17 0-1.214-1.115-2.2-2.492-2.2m1.874 4.537c0 .871-.84 1.58-1.874 1.58-.665 0-1.251-.293-1.584-.734v-4.029c.333-.442.919-.733 1.584-.733 1.033 0 1.874.707 1.874 1.58 0 .462-.236.878-.613 1.169.377.287.613.706.613 1.167m1.493 3.946h.1v.273h.063v-.273h.1v-.054h-.262m.51.233l-.089-.233h-.092v.327h.059v-.253h.002l.097.253h.045l.097-.253h.001v.254h.058v-.327h-.09" fill="#0D2B56" fill-rule="nonzero"/><path d="M109.998 107.098c-.11-.429-.539-1.558-1.464-2.151.925-.594 1.355-1.723 1.464-2.152.037-.145.072-.285.116-.414.203-.595.388-1.134.748-1.583-.893-.707-1.137-1.423-1.375-2.119-.22-.648-.43-1.26-1.205-2.035-1.576-1.575-4.19-1.523-5.764.052-.34-.734-1.13-1.192-1.99-1.192a2.136 2.136 0 0 0-2.097 1.74c.271-.129.575-.203.893-.203 1.202 0 2.181 1.045 2.181 2.328v3.13c0 .545-.208 1.647-1.279 2.448a3.114 3.114 0 0 1 1.28 2.448v3.13c0 1.284-.98 2.329-2.182 2.329-.318 0-.622-.072-.893-.206a2.136 2.136 0 0 0 2.097 1.742c.86 0 1.65-.458 1.99-1.193 1.575 1.578 4.188 1.628 5.764.053.776-.776.985-1.388 1.205-2.036.238-.695.482-1.41 1.375-2.118-.36-.447-.545-.987-.747-1.584-.045-.128-.08-.266-.117-.414m-2.095 3.18c0 1.214-1.116 2.2-2.493 2.2-.954 0-1.782-.472-2.202-1.167v-4.404c.42-.692 1.248-1.165 2.202-1.165 1.377 0 2.493.984 2.493 2.2 0 .428-.139.827-.38 1.169.241.337.38.738.38 1.167m0-8.325c0 1.214-1.116 2.2-2.492 2.2-.954 0-1.783-.473-2.203-1.167v-4.402c.42-.694 1.249-1.168 2.203-1.168 1.376 0 2.492.985 2.492 2.2 0 .429-.138.83-.38 1.17.242.338.38.738.38 1.167" fill="#BD3039" fill-rule="nonzero"/><path d="M120 120h30v30h-30z"/><path d="M124.5 134.98c0-5.787 4.692-10.48 10.48-10.48 5.789 0 10.48 4.693 10.48 10.48 0 5.79-4.691 10.482-10.48 10.482-5.788 0-10.48-4.693-10.48-10.481z" fill="#FFF" fill-rule="nonzero"/><path d="M125.176 134.94c0-5.413 4.388-9.802 9.8-9.802 5.413 0 9.802 4.39 9.802 9.802s-4.389 9.802-9.801 9.802c-5.413 0-9.801-4.39-9.801-9.802zm9.8 7.24a7.24 7.24 0 0 0 0-14.48 7.24 7.24 0 0 0 0 14.48z" fill="#0E3386" fill-rule="nonzero"/><path d="M138.164 136.987a3.787 3.787 0 0 1-6.974-2.047 3.787 3.787 0 0 1 7.035-1.947l1.864-1.818a6.351 6.351 0 0 0-11.462 3.765 6.349 6.349 0 0 0 11.424 3.816l-1.887-1.77z" fill="#CC3433" fill-rule="nonzero"/><path d="M133.856 135.57v-2.303h1.14v2.33c0 .837-.197 1.032-.86 1.032h-1.187c-.547 0-.723-.353-.723-1.093v-2.269h1.14v2.302c0 .314.49.314.49 0zm1.554 1.06v-3.363h1.8c.678 0 .97.16.97.946 0 .413-.08.628-.315.747.314.176.314.51.314.806 0 .746-.33.863-.969.863h-1.8z" fill="#CC3433" fill-rule="nonzero"/><path d="M137.092 134.183c-.003-.137-.133-.127-.485-.127v.471c.197 0 .486.02.486-.157v-.187zm-.008 1.37c-.06-.161-.093-.142-.477-.142v.472c.246 0 .477.02.477-.157 0-.044.012-.14 0-.173z" fill="#FFF" fill-rule="nonzero"/><path d="M140.454 136.63c.614 0 .932-.167.932-.71l-.003-.752c.003-.394-.28-.65-.676-.65h-.822c-.222 0-.173-.325-.173-.423 0-.157.465-.206.465.05v.156h1.209c0-.785-.143-1.034-.932-1.034-.182.003-.853.003-1.062.003-.505 0-.781.197-.8.786-.019.59 0 .334 0 .551 0 .215-.034.697.628.697h.834c.236 0 .19.275.19.275v.175c0 .199-.4.208-.49.044-.059-.107-.027-.277-.027-.277h-1.136c0 .233-.127 1.109.558 1.109h1.305z" fill="#CC3433" fill-rule="nonzero"/><path d="M140.164 137.225h-.194v.53h-.132v-.53h-.194v-.115h.52v.115zm.883.53h-.132v-.512h-.003l-.186.513h-.128l-.18-.513h-.005v.513h-.13v-.646h.227l.15.423h.004l.156-.423h.227v.646z" fill="#0E3386" fill-rule="nonzero"/><g><path d="M150 150h30v30h-30z"/><path d="M159.78 156.193c-.505.54-1.012 1.64-1.081 2.356-.018.244-.035.471-.035.68 0 .734.14 1.292.471 1.833.401.68 1.064 1.257 1.885 1.623.872.401 2.06.943 2.181.995.245.105.611.297.698.401-.122.087-1.082.786-1.151.838-.629-.21-1.623-.087-1.92-.017-.838.192-1.606.575-2.147 1.047-.54.471-.977 1.047-1.1 1.466-.121.384-.104.628.036.75.14.105.366.07.698-.14.349-.226 1.082-.68 1.99-.82.68-.104 1.36-.017 1.867.105 0 0 .384.122.698.331v1.17c-.052.052-.332.297-.332.297a.213.213 0 0 0-.07.156c0 .035 0 .07.018.088a.18.18 0 0 0 .087.104l3.438 2.095s.82-.629.96-.733c.052.087.122.209.157.279-.07.087-.96 1.17-1.064 1.291-.123-.104-.768-.68-.768-.68-.192-.175-.332-.157-.42-.123-.121.053-.208.21-.208.42v1.954l1.151 1.1c.175.174.332.209.437.209.104 0 .209-.07.296-.157 0 0 1.327-1.693 1.676-2.147.122.21 1.273 1.955 1.273 1.955l.035.07c.053.122.14.314.314.349.105.035.227 0 .367-.105.366-.28 1.24-.943 1.344-1.065l.035-.035c.087-.087.157-.157.157-.244v-2.007a.307.307 0 0 0-.157-.262c-.07-.035-.175-.035-.332.105 0 0-.698.524-.925.698-.087-.14-.68-1.082-.75-1.187.07-.104 1.483-1.867 1.588-1.99.104.088.401.315.401.315.157.105.28.122.384.07.175-.105.175-.402.175-.437v-1.553l-.978-1.012c-.07-.087-.174-.14-.279-.122a.409.409 0 0 0-.28.174c-.052.088-.802 1.03-1.326 1.676a1.747 1.747 0 0 0-.436-.227v-2.635l.262-.262c.035-.035.192-.21.192-.384 0-.035 0-.07-.018-.105-.052-.157-.226-.227-.523-.227 0 0-.087 0-.175.018.21-.471.28-.995.28-1.361v-.07c0-.663-.157-1.222-.437-1.64-.349-.524-.61-.681-1.03-.943l-.121-.087c-.489-.314-3.09-1.676-3.194-1.728l-.995-.489c-.785-.4-.907-.733-.907-1.03v-.034c0-.244.349-.698.942-.698.401 0 .716.017 1.274.21.716.243 1.082.593 1.082 1.081l-.018.175 1.205.82 2.042-2.618-1.449-.96-.052.053c-.314.314-.332.314-.663.244a2.91 2.91 0 0 1-.507-.192c-.68-.314-1.815-.768-2.827-.768-1.71 0-2.6.803-3.42 1.693zm3.055 8.883l1.291-.942v-.053c-.017-.227-.628-.506-.855-.593-.122-.052-1.326-.594-2.181-.978-.786-.366-1.414-.907-1.816-1.553-.279-.471-.523-1.1-.4-2.39.069-.664.558-1.746 1.029-2.235.803-.855 1.64-1.623 3.298-1.623.96 0 2.077.454 2.74.716.262.105.437.174.541.192.367.07.472.052.768-.245.105.07 1.012.681 1.152.768-.122.14-1.71 2.182-1.798 2.322-.122-.088-.89-.611-.96-.664v-.07c0-.575-.4-.994-1.204-1.256a3.718 3.718 0 0 0-1.343-.21c-.716 0-1.117.576-1.135.873-.017.489.297.873 1.012 1.24l.995.488c.018.017 2.705 1.413 3.177 1.727l.104.07c.419.262.646.402.978.89.279.42.418.943.4 1.606 0 .384-.069.942-.313 1.43l-.087.158.506-.052c.174 0 .296.035.331.104.035.088-.07.245-.122.28l-.332.331v2.845l.07.017c.157.052.42.157.489.262l.07.105.07-.105a202.58 202.58 0 0 0 1.413-1.78c.035-.052.088-.07.14-.087a.16.16 0 0 1 .122.052s.785.82.925.96v1.501c0 .087-.017.21-.07.244-.035.018-.087 0-.174-.052l-.541-.436-1.78 2.251.925 1.483 1.1-.837c.069-.07.104-.07.121-.07a.133.133 0 0 1 .035.087v2.007c0 .018-.035.07-.087.122l-.035.035c-.105.105-.943.768-1.326 1.047-.088.053-.157.088-.21.07-.087-.017-.14-.157-.192-.244l-.052-.105-1.414-2.181-1.832 2.356c-.035.034-.088.087-.157.087-.088 0-.192-.052-.297-.157 0 0-1.03-.995-1.082-1.047v-1.868c0-.157.052-.227.087-.244.053-.018.122.017.21.087l.907.82 1.274-1.553-.349-.576s-.925.716-1.03.786a352.7 352.7 0 0 0-3.333-2.025v-.07l.384-.349v-1.343l-.052-.035c-.262-.175-.471-.297-.838-.384-.628-.157-1.379-.192-1.902-.105-.943.157-1.71.611-2.06.838-.349.21-.453.174-.488.157-.053-.035-.07-.21.034-.54.122-.385.524-.926 1.047-1.38.524-.453 1.257-.82 2.06-1.012.314-.07 1.309-.174 1.867.035l.053.017.122-.017z" fill="#C4CED4" fill-rule="nonzero"/><path d="M171.823 175.059h-.14v.384h-.105v-.384h-.14v-.088h.385v.088zm.645.384h-.104v-.384l-.14.384h-.087l-.14-.384v.384h-.105v-.472h.175l.105.315.122-.315h.174v.472zM171.805 169.212v-1.43l-.89-.804-2.478 3.072-.35-.558c.298-.227.699-.524.734-.541.07-.035.244-.14.332-.14.087 0-.123-.366-.716-.366v-3.142l.332-.384s-.42.07-.611 0a2.533 2.533 0 0 0-.192-.087c.104-.175.209-.384.279-.61.401-1.275.14-2.462-.82-3.195-.681-.506-3.456-1.92-3.456-1.92s-1.675-.82-1.867-1.012c-.123-.122-.402-.331-.402-.96 0-.384.419-.802.611-.89.297-.14.384-.21.977-.21.332 0 .646.07.681.088.366.035 1.24.332 1.675.925.175.175.21.68.21.68l.698.454 1.518-1.99-.785-.558c-.227.245-.681.262-.855.175-.175-.087-1.71-.646-1.938-.716-.418-.14-1.308-.227-1.78-.157-.488.07-1.273.227-1.901.873-.716.768-.734 1.379-.734 1.71 0 .524.14 1.204.716 1.78.838.838 2.112 1.361 2.391 1.519.506.279 2.112 1.116 2.339 1.256.977.576 1.36 1.187 1.256 1.955 0 .035-.017.07-.017.104-.436-.261-1.03-.628-1.274-.872 0 0-.14.157-.245.244l-.715.54c.087-.348.087-.942.087-.994-.017-.07-.07-.646-.576-.995-.331-.244-1.1-.698-1.745-1.012-.28-.14-1.187-.68-1.623-1.047 0 0-.75-.698-.873-1.134-.226-.489-.226-1.658-.122-1.763 0 0-.279.314-.488.96a3.466 3.466 0 0 0-.157.995c0 .47.087 1.274.593 1.972.227.297.576.646.943.89.453.297.907.471.942.506.122.087 1.309.594 1.414.646.104.052.645.297.768.366.4.21.61.35.75.698l-1.222.908a.6.6 0 0 0 .053.244v.122c-.175-.052-.35-.087-.506-.122-.803-.14-1.292-.122-1.938.035-.698.175-1.448.454-2.146 1.152-.786.785-.786 1.309-.786 1.309l.786-.471c.663-.367 1.518-.594 2.129-.594 1.466 0 2.216.42 2.426.663v1.414c0 .28-.088.314-.14.366-.017.018-.052.018-.122.088 0 0 .105.035.14.07.07.052 2.862 1.727 2.862 1.727l1.082-.785.54.855-1.483 1.833-1.012-.925v1.727l1.17 1.065 2.059-2.583 1.692 2.688 1.362-1.082v-1.71l-1.082.82-1.1-1.763 2.007-2.513.594.54v.001zm-6.946-3.857l.629-.47c.174.139.384.278.575.383l-.017.017s-.733.629-1.187.698v-.628zm1.117 4.067l-1.117-.681v-1.676c.472-.087 1.606-.628 2.2-1.204v2.007l-.681-1.082-1.047.733v1.327l.575-.384.437.68-.367.28z" fill="#000" fill-rule="nonzero"/></g><g><path d="M180 180h30v30h-30z"/><path d="M196.574 190.505c2.73 0 4.791 1.26 5.483 2.354h3.437a9.242 9.242 0 0 1-.217-.541h-3.283c-.692-1.094-2.847-2.354-5.577-2.354-4.643 0-6.465 3.085-6.465 4.564 0 .855.25 1.608.674 2.249-.277-.522-.343-1.307-.343-1.815 0-1.478 1.753-4.457 6.291-4.457" fill="#000" fill-rule="nonzero"/><path d="M196.295 201.85c-4.746 0-6.612-2.037-8.81-4.371-.902-.957-1.465-1.822-2.925-2.898l.3.693c1.404 1.148 1.983 1.978 2.885 2.934 2.198 2.335 4.032 4.172 8.778 4.172 4.155 0 7.373-2.054 8.885-4.58l-.227-.531c-1.513 2.527-4.73 4.58-8.886 4.58" fill="#000" fill-rule="nonzero"/><path d="M196.417 189.964c2.73 0 4.885 1.26 5.577 2.354h3.283c-1.522-3.007-5.452-4.818-9.382-4.818-3.859 0-6.809 2.226-8.5 4.231-1.642 1.943-2.396 2.566-2.684 2.762a.838.838 0 0 1-.151.088c1.46 1.076 2.023 1.94 2.925 2.898 2.198 2.334 4.064 4.37 8.81 4.37 4.156 0 7.372-2.053 8.886-4.58h-3.246c-1.52 1.153-3.38 2.083-5.743 2.083-2.184 0-4.465-.91-5.566-2.575a4.016 4.016 0 0 1-.674-2.25c0-1.478 1.822-4.563 6.465-4.563z" fill="#C6011F" fill-rule="nonzero"/></g><g><path d="M210 210h30v30h-30z"/><path d="M231.386 222.717V216h-3.167v.73l-.73-.73h-6.322L218 219.167v12.666l3.167 3.167h7.052l3.167-3.167v-3.55h-3.167v2.24l-1.31 1.31h-4.43l-1.312-1.31v-10.041l1.313-1.315h4.429l1.31 1.315v2.235h3.167zm.284 10.874h-.277v.76h-.186v-.76h-.279v-.16h.742v.16zm1.256.76h-.185v-.732h-.004l-.264.733h-.185l-.257-.733h-.003v.733h-.188v-.922h.325l.213.6h.004l.222-.6h.322v.922z" fill="#E31937" fill-rule="nonzero"/></g><g><path d="M240 240h30v30h-30z"/><path d="M250.494 245.868s-3.464 1.357-3.467 5.772c-.004 4.522 3.34 5.377 3.34 5.377s-1.722-2.162-1.717-5.632c.007-3.736 1.844-5.517 1.844-5.517z" fill="#C4CED4" fill-rule="nonzero"/><path d="M262.273 264.016c-.716-.704-2.023-4.405-3.104-4.648.396-.2 2.888-.78 2.9-3.474-.012-2.913-2.71-3.857-5.408-3.857-.573 0-1.618.042-2.68.105-1.35.085-2.04.148-3.068.232v.99c1.449 0 1.753.338 1.753 1.919v1.885c-1.997-.422-3.308-2.644-3.308-5.766 0-3.307 1.554-5.631 3.823-5.631.853 0 1.604.34 2.201.96.598.618 1.024 1.514 1.212 2.602h.802l-.153-4.459h-.632c-.068.214-.153.3-.308.3-.426 0-1.432-.641-3.258-.641-1.98 0-3.67.725-4.846 2.005-1.195 1.302-1.878 3.072-1.878 5.205 0 1.472.426 3.135 1.4 4.458.972 1.322 2.542 2.282 4.828 2.282.04 0 .077-.003.117-.003v4.158c0 1.539-.337 1.855-1.753 1.855v.99h6.39v-.99c-1.316 0-1.805-.19-1.805-1.75v-2.824h.893s3.294 5.566 3.384 5.566l3.933-.003v-.985s-.743.122-1.435-.48zm-15.246-12.376c.003-4.415 3.467-5.772 3.467-5.772s-1.837 1.78-1.844 5.517c-.005 3.47 1.717 5.632 1.717 5.632s-3.344-.855-3.34-5.377zm7.785 12.85h-1.456v-11.296l1.456-.1v11.396zm6.397-8.54c.007 2.22-2.707 2.778-2.707 2.778s1.003-.604 1.004-2.753c0-2.169-.96-2.782-.96-2.782s2.656.239 2.663 2.757zm-5.71 2.937v-.696c.063-.002.128-.006.19-.006.206 0 .393 0 .546.043.171.02.343.063.496.127l.051-.149c.495-1.45.905-3.029 1.04-4.245h-.801c-.408 1.093-.917 1.911-1.523 2.458v-3.37h.826c1.635 0 2.496 1.096 2.496 2.76 0 2.171-.876 3.12-3.322 3.078zm4.355 5.609s-1.876-3.354-2.738-4.555c0 0 .633-.1.942-.19.281-.08.486-.16.486-.16.735.37 1.786 2.011 2.348 3.354.605 1.211 1.038 1.556 1.038 1.556l-2.076-.005z" fill="#000" fill-rule="nonzero"/><path d="M253.356 264.49h1.456v-11.397l-1.456.101v11.296zm6.15-8.515c-.001 2.15-1.004 2.753-1.004 2.753s2.714-.559 2.707-2.778c-.007-2.518-2.663-2.757-2.663-2.757s.96.613.96 2.782zm1.386 6.97c-.562-1.343-1.613-2.985-2.348-3.354 0 0-.205.08-.486.16-.31.09-.942.19-.942.19.862 1.201 2.738 4.555 2.738 4.555l2.076.005s-.433-.345-1.038-1.556z" fill="#C4CED4" fill-rule="nonzero"/></g><g><path d="M270 270h30v30h-30z"/><path d="M291.226 288.58v-8.333c.052-.711.23-.94.747-1.423-1.153-.432-2.474-1.778-3.186-3.201-3.556 1.83-7.52 1.83-10.517-.813-.297-.263-.634-.396-.406.101.846 1.839 2.603 2.983 4.579 3.49-1.137.987-1.807 1.567-1.957 2.815-.972.073-2.013.784-2.342 1.445-.376.752.18.767.558.508.483-.33 1.167-.458 1.752-.432v.944c-.973.072-1.93.784-2.26 1.444-.375.752.18.767.558.508a2.89 2.89 0 0 1 1.702-.483v2.846c0 1.118-.558 1.677-.89 1.982-.329.305-.147.623.332.431 1.004-.402 2.048-1.354 2.285-2.805.385.05.846.053 1.17.002v.39c0 1.118-.56 1.677-.89 1.982l-.013.014c-1.069.093-2.025.454-2.787 1.046-1.733 1.353-2 3.894-1.733 4.456.017.036.977-3.14 3.827-3.478 1.652-.195 3.68.299 5.407 1.798 1.066-1.779 2.871-2.794 4.98-3.154-.712-.809-.89-1.165-.916-2.08zm-2.286-9.35v2.497c-1.14.344-2.785.331-3.81-.037v-.325c0-.884.073-2.004.8-2.71a8.825 8.825 0 0 0 1.994-.44l1.016 1.015zm-3.81 3.325c1.025.367 2.67.38 3.81.036v2.426c-1.14-.344-2.785-.331-3.81.037v-2.5zm-.069-3.846c-.535.467-.993.902-1.3 1.407a4.395 4.395 0 0 0-1.145-.235 3.96 3.96 0 0 1 .976-1.254c.487.063.978.09 1.47.082zm-2.829 8.174v-5.518c0-.243.038-.5.108-.76a2.589 2.589 0 0 1 1.147.118c-.08.258-.132.535-.13.849l-.005 5.28c-.287.061-.727.069-1.12.031zm4.37 3.984c-1.103-.546-2.19-.829-3.205-.887.912-.612 1.732-1.692 1.732-3.127v-.935c1.026-.368 2.671-.38 3.811-.037v3.614c-.711.203-1.575.711-2.337 1.372z" stroke="#FFF" stroke-width=".96"/><path d="M291.226 288.58v-8.333c.052-.711.23-.94.747-1.423-1.153-.432-2.474-1.778-3.186-3.201-3.556 1.83-7.52 1.83-10.517-.813-.297-.263-.634-.396-.406.101.846 1.839 2.603 2.983 4.579 3.49-1.137.987-1.807 1.567-1.957 2.815-.972.073-2.013.784-2.342 1.445-.376.752.18.767.558.508.483-.33 1.167-.458 1.752-.432v.944c-.973.072-1.93.784-2.26 1.444-.375.752.18.767.558.508a2.89 2.89 0 0 1 1.702-.483v2.846c0 1.118-.558 1.677-.89 1.982-.329.305-.147.623.332.431 1.004-.402 2.048-1.354 2.285-2.805.385.05.846.053 1.17.002v.39c0 1.118-.56 1.677-.89 1.982l-.013.014c-1.069.093-2.025.454-2.787 1.046-1.733 1.353-2 3.894-1.733 4.456.017.036.977-3.14 3.827-3.478 1.652-.195 3.68.299 5.407 1.798 1.066-1.779 2.871-2.794 4.98-3.154-.712-.809-.89-1.165-.916-2.08zm-2.286-9.35v2.497c-1.14.344-2.785.331-3.81-.037v-.325c0-.884.073-2.004.8-2.71a8.825 8.825 0 0 0 1.994-.44l1.016 1.015zm-3.81 3.325c1.025.367 2.67.38 3.81.036v2.426c-1.14-.344-2.785-.331-3.81.037v-2.5zm-.069-3.846c-.535.467-.993.902-1.3 1.407a4.395 4.395 0 0 0-1.145-.235 3.96 3.96 0 0 1 .976-1.254c.487.063.978.09 1.47.082zm-2.829 8.174v-5.518c0-.243.038-.5.108-.76a2.589 2.589 0 0 1 1.147.118c-.08.258-.132.535-.13.849l-.005 5.28c-.287.061-.727.069-1.12.031zm4.37 3.984c-1.103-.546-2.19-.829-3.205-.887.912-.612 1.732-1.692 1.732-3.127v-.935c1.026-.368 2.671-.38 3.811-.037v3.614c-.711.203-1.575.711-2.337 1.372z" fill="#182D55" fill-rule="nonzero"/></g><g><path d="M300 300h30v30h-30z"/><path d="M314.982 325.462c-5.78 0-10.482-4.702-10.482-10.481 0-5.78 4.703-10.481 10.482-10.481 5.779 0 10.48 4.702 10.48 10.481s-4.701 10.48-10.48 10.48" fill="#002D62" fill-rule="nonzero"/><path d="M320.134 311.977h3.447a9.11 9.11 0 0 0-8.442-6.101l1.474 4.534h3.521v1.567zm-10.304 8.253v-1.564l1.236-.444-.287.102.287-.102v-2.507l-4.776-3.47a9.126 9.126 0 0 0-.419 2.737 9.088 9.088 0 0 0 3.63 7.274l.658-2.026h-.33zm0-9.82h3.52l1.474-4.534a9.11 9.11 0 0 0-8.444 6.1h3.45v-1.566zm5.826 8.643l-.674-.492-.676.492v1.177h-1.62l-2.987 2.171a9.058 9.058 0 0 0 5.283 1.69c1.97 0 3.791-.628 5.282-1.69l-2.988-2.171h-1.62v-1.177zm8.017-6.805l-4.774 3.467v2.507l1.235.445v1.563h-.331l.659 2.026a9.092 9.092 0 0 0 3.628-7.274c.001-.927-.14-1.85-.417-2.734z" fill="#002D62" fill-rule="nonzero"/><path d="M314.982 305.21a9.77 9.77 0 0 0-9.773 9.771 9.77 9.77 0 0 0 9.773 9.772 9.77 9.77 0 0 0 9.771-9.772 9.77 9.77 0 0 0-9.771-9.772m5.48 17.048l-.66-2.027h-2.526l2.988 2.17a9.072 9.072 0 0 1-5.282 1.69 9.047 9.047 0 0 1-5.283-1.69l2.987-2.17h-1.571l-1.736 2.403.122-.377a9.087 9.087 0 0 1-3.63-7.275c0-.952.147-1.871.419-2.736l4.775 3.47v-.6l-3.647-2.652-1.5-.486h.462c1.227-3.508 4.534-6.036 8.443-6.101l.159-.486v8.928h1.91v-1.9l-1.236-.441v-1.567h.956l-1.473-4.534a9.109 9.109 0 0 1 8.442 6.1h.466l-1.501.488h-3.647v3.251l4.774-3.467a9.12 9.12 0 0 1 .417 2.733 9.092 9.092 0 0 1-3.628 7.276" fill="#EB6E1F" fill-rule="nonzero"/><path fill="#EB6E1F" fill-rule="nonzero" d="M316.891 318.222v-1.897h-2.953l-.866 1.196v.701l1.234.443v.388l.675-.492.675.492v-.388"/><path d="M318.9 312.418v.046h3.645l1.5-.487h-3.911l-1.234.441zm-4.594-2.008v1.567l-1.234.441v1.898h1.909v-8.926l-.157.486-1.473 4.534h.955zm-1.234 7.111l.865-1.196h-.865v1.196zm-2.293.804l.287-.103-.287.103zm-1.278 3.931l-.121.377 1.736-2.403h-.957l-.658 2.026zm.329-10.28h-3.913l1.5.487 3.65 2.651v-2.696l-1.237-.441z" fill="#F4911E" fill-rule="nonzero"/><path fill="#FFF" fill-rule="nonzero" d="M309.83 318.665v1.565l.396-.399h3.682v-.887l.398-.279-1.234-.443-.399.28v-2.575h4.617l-.399.398v1.898l-1.235.442v1.565l.399-.398h3.68v-.887l.4-.28-1.236-.442-.4.28v-6.365l1.237-.443v-.886l.398-.4h-4.478v1.568l.399-.282 1.235.443-.399.28v1.898h-3.819l-.4.4v-2.578l1.236-.443v-.886l.398-.4h-4.476v1.568l.396-.282 1.238.443-.398.28v5.804"/><path d="M320.134 311.977v-1.567l-.4.4v.885l-1.235.443v6.365l.4-.28v-5.805m1.235 6.247l-.4.28v.886h-3.68l-.4.399h4.48m-7.062-3.905h3.819l.398-.399h-4.616v2.577l.4-.282v-.7m1.233 1.532v-.388l-.397.28v.886h-3.682l-.397.399h4.476m-2.842-8.092l-1.238-.443-.396.282 1.236.443m4.989-.725l-.4.282 1.236.443.399-.282m-2.984-.161v-1.567l-.397.4v.885l-1.237.443v2.578l.4-.4v-1.898" fill="#E7E9EA" fill-rule="nonzero"/><path d="M323.194 323.56h-.218v.589h-.146v-.589h-.217v-.128h.58v.128zm.98.589h-.146v-.571h-.004l-.208.57h-.14l-.202-.57h-.003v.57h-.147v-.716h.253l.168.468h.002l.175-.468h.252v.717z" fill="#002D62" fill-rule="nonzero"/></g><g><path d="M330 330h30v30h-30z"/><path d="M336.343 337.71c0-1.384-.842-1.83-1.597-1.819l-.246-.01v-.718h4.918l.001.731c-.705.059-1.425.534-1.425 1.817v4.315l.34-.212c.71-1.107 2.57-4.043 2.956-4.89.477-1.04-.252-1.04-.95-1.04v-.724h4.36v.725h-.307c-.474 0-1.061 0-1.845 1.07-1.001 1.371-2.99 4.695-2.99 4.695 3.046.253 4.192 4.886 4.975 5.514-.448-3.31 1.762-7.436 5.004-7.276.362.016.81-.035 1.844.28 1.035.316 1.13-.25 1.268-.881h.773v5.452h-.669c-.055-.944-.478-4.067-3.208-4.162-2.775-.093-3.297 3.467-3.335 5.896-.139 8.979 5.507 8.696 6.541 5.796.151-.419.085-.538-.084-.63-1.23-.66.196-2.427.986-.882.362.709-.286 4.066-3.67 4.066-5.254 0-6.791-8.132-8.747-10.78-1.524-2.06-2.767-1.133-3.235-.628l-.02 1.416.012 2.523c0 1.387.841 1.832 1.597 1.823l.247.008v.715H334.5v-.715l.246-.008c.755.008 1.597-.437 1.597-1.823v-9.643zm17.857 16.227h-.283v.768h-.19v-.768h-.28v-.163h.753v.163zm1.274.768h-.19v-.742h-.004l-.27.742h-.184l-.262-.742h-.005v.742h-.189v-.93h.33l.216.606h.004l.226-.607h.328v.93z" stroke="#FFF" stroke-width=".96"/><path d="M336.343 337.71c0-1.384-.842-1.83-1.597-1.819l-.246-.01v-.718h4.918l.001.731c-.705.059-1.425.534-1.425 1.817v4.315l.34-.212c.71-1.107 2.57-4.043 2.956-4.89.477-1.04-.252-1.04-.95-1.04v-.724h4.36v.725h-.307c-.474 0-1.061 0-1.845 1.07-1.001 1.371-2.99 4.695-2.99 4.695 3.046.253 4.192 4.886 4.975 5.514-.448-3.31 1.762-7.436 5.004-7.276.362.016.81-.035 1.844.28 1.035.316 1.13-.25 1.268-.881h.773v5.452h-.669c-.055-.944-.478-4.067-3.208-4.162-2.775-.093-3.297 3.467-3.335 5.896-.139 8.979 5.507 8.696 6.541 5.796.151-.419.085-.538-.084-.63-1.23-.66.196-2.427.986-.882.362.709-.286 4.066-3.67 4.066-5.254 0-6.791-8.132-8.747-10.78-1.524-2.06-2.767-1.133-3.235-.628l-.02 1.416.012 2.523c0 1.387.841 1.832 1.597 1.823l.247.008v.715H334.5v-.715l.246-.008c.755.008 1.597-.437 1.597-1.823v-9.643zm17.857 16.227h-.283v.768h-.19v-.768h-.28v-.163h.753v.163zm1.274.768h-.19v-.742h-.004l-.27.742h-.184l-.262-.742h-.005v.742h-.189v-.93h.33l.216.606h.004l.226-.607h.328v.93z" fill="#174885" fill-rule="nonzero"/></g><g><path d="M360 360h30v30h-30z"/><path d="M375.712 385.415h5.96c-.551-.375-1.037-1.03-1.254-1.778l-1.666-5.72c-.18-.614.113-1.23.582-1.646-.665-.204-1.254-.667-1.442-1.303l-.932-3.2c1.327-.443 2.192-1.23 2.192-2.143 0-1.192-1.477-2.17-3.53-2.449l-.78-2.676h-.873l-.78 2.676c-2.054.28-3.533 1.257-3.533 2.449 0 .913.866 1.7 2.194 2.142l-.933 3.201c-.183.636-.775 1.1-1.44 1.303.468.416.763 1.032.584 1.647l-1.668 5.719c-.22.748-.703 1.403-1.253 1.778h5.96c-.487-.375-.753-1.03-.535-1.778l.146-.5h3.39l.145.5c.219.748-.048 1.403-.534 1.778zm-1.82-6.327l.515-1.769.513 1.769h-1.027z" fill="#FFF" fill-rule="nonzero"/><path d="M380.669 385.01a3.927 3.927 0 0 1-.643-1.259l-1.654-5.679c-.264-.902.222-1.542.286-1.644-.576-.312-.997-.786-1.156-1.346l-1.008-3.457c1.421-.379 2.39-1.131 2.39-2 0-1.1-1.558-2.017-3.619-2.22l-.727-2.5h-.264l-.727 2.5c-2.063.203-3.62 1.12-3.62 2.22 0 .869.97 1.621 2.39 2l-1.008 3.457c-.162.56-.58 1.034-1.158 1.346.065.103.552.742.288 1.644l-1.655 5.679a3.89 3.89 0 0 1-.643 1.259h4.127c-.334-.737-.159-1.272-.01-1.777l.147-.503h4l.149.503c.146.505.32 1.04-.012 1.777h4.127zm-7.324-5.514l1.061-3.633 1.058 3.633h-2.119z" fill="#003263" fill-rule="nonzero"/><path d="M375.502 370.513l-.53-1.824.104.364c-.217-.011-.441-.02-.67-.02v1.184l3.179 10.897.731 2.5 1.256.752a4.364 4.364 0 0 1-.226-.587l-1.582-5.416c-.25-.846-.113-1.212.068-1.722a2.633 2.633 0 0 1-.946-1.375l-1.2-4.125h-.003l-.181-.628zm-.723-2.49l-.373-1.275v1.268c.126 0 .249.002.373.007zm-4.303 15.657l1.015.686a2.738 2.738 0 0 1 .096-1.11l.335-1.167-.697-.975-.75 2.566z" fill="#BA0021" fill-rule="nonzero"/><path fill="#BA0021" fill-rule="nonzero" d="M372.49 380.137l1.917-6.564v-3.356l-3.182 10.897h6.36l-1.267-.977"/><path fill="#862633" fill-rule="nonzero" d="M374.406 373.573l1.912 6.564 1.267.977-3.178-10.897"/><path d="M379.572 384.366l-1.256-.752-.731-2.5h-6.36l3.181-10.897v-1.184c.23 0 .453.008.67.02l-.104-.365a10.33 10.33 0 0 0-.566-.017c-.192 0-.382.008-.567.018l-.532 1.824h.002l-.183.629h-.002l-1.202 4.124a2.617 2.617 0 0 1-.943 1.375c.18.51.316.876.068 1.722l-1.583 5.416c-.06.201-.135.396-.228.587h2.255l-1.015-.686.749-2.566.697.975h4.964l.342 1.167c.092.32.143.768.092 1.11h2.252zm-5.166-17.618l-.371 1.275c.122-.005.247-.007.372-.007v-1.268z" fill="#862633" fill-rule="nonzero"/><path d="M373.31 370.513h-.003c-1.151-.136-1.969-.484-1.969-.888 0-.466 1.077-.853 2.501-.936.185-.01.375-.017.567-.017a10.315 10.315 0 0 1 .566.017c1.422.082 2.502.47 2.502.936 0 .404-.82.753-1.97.888h-.002l.181.63.002-.002c1.483-.22 2.548-.815 2.548-1.516 0-.834-1.518-1.522-3.454-1.602a9.302 9.302 0 0 0-.745 0c-1.941.08-3.455.768-3.455 1.602 0 .701 1.063 1.295 2.545 1.517h.002l.183-.628z" fill="#C4CED4" fill-rule="nonzero"/><g fill="#003263" fill-rule="nonzero"><path d="M382.529 384.586c0-.158-.093-.184-.228-.184h-.286v.59h.124v-.235h.101l.135.236h.137l-.142-.236c.104-.008.16-.066.16-.171h-.001zm-.225.067h-.165v-.143h.135c.058 0 .134 0 .134.063s-.038.08-.105.08z"/><path d="M382.25 384.13a.563.563 0 0 0-.562.57.56.56 0 0 0 .562.565.56.56 0 0 0 .565-.564.563.563 0 0 0-.565-.57zm0 1.013a.434.434 0 0 1-.437-.442c0-.254.195-.444.437-.444s.441.19.441.444c0 .252-.199.442-.44.442z"/></g></g><g><path d="M390 390h30v30h-30z"/><path d="M410.147 406.086v2.146l-.95.001-2.064-8.628h-3.028l-2.06 8.628h-.718v-11.701h1.584V394.5l-5.15.013v2.019h1.492v11.8h-1.573v2.051h3.85c-.063.266-.659 2.754-.697 2.922h-1.565v2.157l5.346-.011v-2.146h-1.505c.057-.265.63-2.75.666-2.922h3.69c.04.172.61 2.657.668 2.922h-1.507v2.146l5.347.01-.001-2.156h-1.564c-.038-.168-.634-2.656-.697-2.922h2.59v-4.297h-2.154zm-5.88 2.147c.063-.268 1.199-5.222 1.353-5.904l1.352 5.904h-2.706z" fill="#005A9C" fill-rule="nonzero"/></g><g><path d="M420 420h30v30h-30z"/><path d="M438.14 429.164l-3.743 6.874-2.753-5.108a34.776 34.776 0 0 1 3.461-1.913l.502-.24-1.268-.595 6.584-3.442s-.557.161-2.402.776c-1.412.471-4.188 1.525-4.467 1.61 0 0-1.001.371-2.227-.162-1.274-.553-2.634-1.213-2.634-1.213.228 1.262-.488 2.37-1.155 3.22-.645.824-2.913 3.155-2.885 5.297.034 2.486 2.27 2.958 2.27 2.958l-2.923 7.317h4.737l1.994-5.097 3.164 5.799 3.167-5.799 1.989 5.097h4.74l-6.152-15.38zm-10.132 6.598a2.19 2.19 0 0 1-.104-.214 2.077 2.077 0 0 1-.062-.294c-.112-.82.562-1.722 1.36-2.478l-1.194 2.986z" fill="#FFF" fill-rule="nonzero"/><path d="M431.17 430.61c.914-.588 2.051-1.23 3.528-1.969l-.444-.207-.21-.1a40.985 40.985 0 0 0-3.15 1.765l.276.51m-2.003 6.557a2.08 2.08 0 0 1-.051-.024c-.58-.232-1.254-.692-1.594-1.269-.32-.599-.319-1.386.374-2.387l.007-.01c.058-.083.118-.164.181-.245.006-.008.015-.017.02-.025.064-.081.13-.16.198-.238l.039-.043c.157-.177.32-.348.492-.512a12.97 12.97 0 0 1 1.205-1.02l.402-1.005c-.14.09-.277.183-.414.276-4.05 2.787-3.74 4.664-2.594 5.624.2.172.43.33.661.443.32.153.622.297.944.397l.11.033.019.005" fill="#0077C8" fill-rule="nonzero"/><path d="M438.103 429.784l-3.707 6.81-3.102-5.754a34.74 34.74 0 0 1 3.697-2.061l-.293-.137c-1.477.739-2.614 1.38-3.528 1.968l-.47-.872-.662 1.655-.237.182c-.337.263-.66.543-.968.838a8.489 8.489 0 0 0-.492.512l-.04.042a6.475 6.475 0 0 0-.196.239c-.006.008-.015.016-.021.025a5.51 5.51 0 0 0-.18.246l-.008.009c-.692 1-.694 1.788-.374 2.387.34.577 1.013 1.037 1.594 1.27l-.023-.012-.063-.032a2.711 2.711 0 0 1-.661-.465l2.33-5.949 3.702 6.85 3.702-6.85 5.145 13.145h-3.204l-2.372-6.073-3.27 6.052-3.27-6.052-.03.08v-.001l-2.345 5.994h-3.205l2.63-6.718.125.018a6.657 6.657 0 0 1-.443-.086h-.005c-2.912-1.503-2.15-5.224 5.986-8.998 3.035-1.439 5.097-2.503 5.097-2.503l-.871.334.116-.045s-1.674.764-1.962.89c-1.661.73-3.89 1.717-4.816 2.189a17.83 17.83 0 0 0-.816.452c-3.156 1.982-5.47 4.204-4.295 6.757-1.347-1.564-.165-3.86 1.26-5.447.95-1.062 1.4-1.501 1.886-2.289.381-.617.626-1.266.604-1.918l.065.03-.573-.288c.064.21-.074 1.481-.894 2.603-.897 1.224-3.992 3.93-3.054 6.478.52 1.413 1.86 1.692 2.193 1.745h-.001l-2.894 7.245h4.167l2.135-5.458 3.203 5.872 3.207-5.872 2.13 5.458h4.168l-5.797-14.495zm-10.034 6.537a2.817 2.817 0 0 1-.415-.685c-.03-.1-.055-.214-.074-.346-.154-1.119.891-2.333 2.267-3.42l-1.778 4.451z" fill="#C4CED4" fill-rule="nonzero"/><path d="M428.603 437.166l.104.014-.104-.014m.518.005l.015-.002a1.492 1.492 0 0 1-.015.002" fill="#C4CED4" fill-rule="nonzero"/><path d="M429.444 428.384c-.485.788-.935 1.227-1.887 2.289-1.425 1.587-2.606 3.883-1.258 5.447-1.177-2.553 1.138-4.775 4.295-6.758.332-.194.63-.357.815-.451.926-.472 3.155-1.459 4.816-2.188.288-.127 1.962-.891 1.962-.891l-.116.044c-.584.223-3.335 1.268-3.935 1.502-.009.004 0 0-.003 0-.319.08-.771.16-1.093.148a3.372 3.372 0 0 1-1.183-.269c-.148-.063-1.016-.42-1.743-.76a3.197 3.197 0 0 0-.066-.03c.022.651-.223 1.3-.604 1.917" fill="#F60" fill-rule="nonzero"/><path fill="#FFD100" fill-rule="nonzero" d="M430.823 432.704l3.45 6.332.135.25.136-.25 3.428-6.319v.001l.13-2.033-3.7 6.85-3.702-6.85.094 1.556.029.464z"/><path fill="#0077C8" fill-rule="nonzero" d="M440.808 443.159l-3.003-7.611-3.404 6.295-3.394-6.278-2.996 7.583h-1.274l-.007.017-1.178.664h3.205l2.375-6.072 3.27 6.052 3.27-6.052 2.371 6.072h3.205l-1.18-.67z"/><path d="M430.823 432.705l-.03-.464-.094-1.556-2.33 5.95c.036.044.277.256.595.43l.033.017.033.017 1.793-4.394zm-5.27 11.124l1.178-.663.006-.018 2.26-5.969a2.303 2.303 0 0 1-.29-.005 5.394 5.394 0 0 1-.4-.044c-.042-.006-.085-.011-.126-.018l-2.629 6.717zm16.516-.67l1.18.67-5.146-13.143-.131 2.032 4.097 10.44z" fill="#F60" fill-rule="nonzero"/><path d="M428.997 437.18l-2.26 5.968h1.274l2.996-7.582 3.394 6.277 3.404-6.295 3.004 7.61h1.26l-4.097-10.44-3.428 6.318-.136.25-.134-.25-3.451-6.332-1.793 4.395s.042.023.063.032c.024.012.048.024.074.035h-.001l-.03.002-.015.002-.124.01" fill="#FFF" fill-rule="nonzero"/><path d="M445.476 443.794v.485h-.099v-.386h-.003l-.14.386h-.096l-.136-.386H445v.386h-.099v-.485h.172l.113.316h.002l.118-.316h.17zm-1.056.086h.146v.399h.1v-.399h.145v-.086h-.391v.086z" fill="#C4CED4" fill-rule="nonzero"/></g><g><path d="M450 450h30v30h-30z"/><path d="M462.36 456.042v.003l.001-.003h-.002zm9.51 13.257l-.073-.073-.63-.63-.324-.035c-.169-.473-.153-1.097-.044-1.472l.667-2.4.136-.488.162-.58.135-.487.185-.666.082-.294 1.315-4.727c.01-.033.02-.07.027-.104 0-.002.001-.002.002-.003h.001c.022-.02.078-.06.107-.08.241-.172.642-.458.839-1.17l.206-.747-.844-.843-3.832.938-1.597 2.803-.145.253-2.46 4.317-.1-1.044c-.113-1.214-.581-2.27-1.355-3.052 0-.001-.423-.423-.497-.5h-.002l-.013-.013a4.398 4.398 0 0 0-.37-.325c-.967-.763-2.23-1.114-3.56-.989a4.921 4.921 0 0 0-3.19 1.615 4.925 4.925 0 0 0-1.291 3.303c0 1.206.393 2.263 1.108 2.978l.458.458c.477.477 1.071.768 1.654.816l-.334 1.213-.08.293-.341 1.238-.06.229a1.749 1.749 0 0 1-.103.335c-.332.219-.75.61-.927 1.253l-.311 1.12.916.916.316-.188c.26-.154.523-.302.79-.446l-.132.465-.05.029a20.18 20.18 0 0 0-2.602 1.75l-.369.294.699.899.376-.299a19.041 19.041 0 0 1 2.461-1.656l.05-.028 1.038.291.062-.029c.153-.073.307-.145.46-.216l.383-.17c1.88-.823 5.467-2.04 10.589-1.308l.297.043c.106.017.207.027.314.046l.167.027.152-.584 1.03.089.14-.904-.948-.388.16-.601-.488-.106c-.1-.021-.2-.042-.3-.06a2.793 2.793 0 0 0-.094-.02l-.018-.286zm-12.182-7.105c-.416-.403-.87-.61-1.35-.61l-.01.001c.066-.747.595-1.4 1.314-1.645-.085.443.047.824.37 1.078l-.324 1.176zm1.946 8.03l.716-2.624.17 1.804.443.434c-.447.115-.89.244-1.33.387zm4.124-.909l1.187-2.085c.088.75.373 1.434.821 1.952-.687.006-1.361.05-2.008.133z" fill="#0A2351" fill-rule="nonzero"/><path d="M473.507 457.34v.003l.002-.003h-.002z" fill="#0A2351" fill-rule="nonzero"/><path d="M463.046 471.278a18.6 18.6 0 0 0-.898.268l.982.484c.282-.079.566-.151.852-.217l-.936-.535zm2.338-.486c-.309.044-.617.097-.923.156l.913.6c.289-.043.579-.08.872-.111l-.862-.645zm-.402-.886l-.567.86c.31-.06.623-.113.938-.16l.625-.832c-.335.036-.668.08-.996.132zm-4.195 2.141c-.289.12-.575.245-.858.377l1.033.36c.27-.113.544-.22.82-.32l-.995-.417zm-1.09.487c-.281.137-.559.28-.833.43l1.053.295c.264-.13.53-.252.8-.37l-1.02-.355zm2.207-.907c-.296.1-.59.208-.88.324l1.01.423c.276-.096.556-.186.837-.27l-.967-.477zm1.337-.596c.307-.08.615-.152.927-.217l.57-.867c-.331.056-.66.12-.988.193l-.51.891zm.965-.034c-.306.064-.61.135-.912.214l.95.544c.288-.061.576-.116.865-.164l-.903-.594zm2.388-1.282c-.126.01-.248.022-.372.034l-.616.822c.314-.041.629-.074.946-.101l.674-.793c-.21.01-.42.022-.632.038zm-.956 1.041l.877.656c.07-.006.14-.014.21-.019.222-.018.444-.03.667-.04l-.823-.696a18.18 18.18 0 0 0-.931.1zm-3.554.615c.301-.099.605-.19.91-.273l.518-.904c-.327.077-.652.16-.973.254l-.455.923zm10.943-.282c-1.45-.396-2.947-.661-4.504-.685l.164.095-.155.092c1.532.025 3.048.174 4.491.517l.004-.02zm-14.26 1.716c.278-.154.56-.3.845-.437l.343-.983c-.307.136-.611.279-.911.43l-.277.99zm2.182-1.026c.295-.117.593-.227.894-.33l.46-.93c-.322.096-.64.2-.957.313l-.397.947zm-1.107.48c.287-.135.577-.263.87-.384l.405-.96c-.316.115-.628.239-.936.371l-.34.973zm12.05-.661c-1.439-.312-2.92-.496-4.45-.435l.215.18c1.44-.042 2.864.022 4.23.272l.005-.017zm-4.663-1.654l-.513.606.626.527.979-.585-1.092-.548zm-11.11 4.843c.795-.631 1.639-1.2 2.522-1.699l-.098-.159a19.486 19.486 0 0 0-2.537 1.71l.114.148zm17.552-19.761l-.132.48c-.151.549-.443.756-.654.907-.155.11-.239.17-.288.334l-2.714 9.754c-.178.613-.137 1.58.24 2.14.11.163.238.271.383.332-.306-.572-.331-1.445-.166-2.014l2.716-9.753c.048-.165.133-.225.286-.334.213-.152.505-.36.656-.908l.131-.48-.458-.458zm-2.936 14.573c-1.008.238-1.905.012-2.527-.637.089.091.396.392.459.458.097.102.204.19.314.27-.499-.028-1-.042-1.51-.023l-.161.192a25.947 25.947 0 0 1 1.92-.009c.554.304 1.229.38 1.963.207l.15-.036c.28.038.56.074.835.125l.004-.016c-.246-.053-.495-.096-.743-.14l-.031-.48-.459-.46.03.49-.244.059zm-5.983-.746c-.58.072-1.32.21-1.776.332l.467.459c.393-.106 1.287-.27 1.768-.332l2.564-4.495.68-2.457-3.703 6.493zm-5.172-9.943c-1.23.116-2.193 1.158-2.193 2.372 0 .335.117.657.326.911.063-.028.132-.045.199-.064l-.014-.004a1.444 1.444 0 0 1-.054-.386c0-1.213.964-2.255 2.194-2.37.384-.037.77.02 1.127.163l.213-.052a2.407 2.407 0 0 0-1.798-.57zm-1.243 6.221c-.51 0-1.05-.25-1.486-.684l.46.458c.433.435.975.685 1.483.685.166 0 .326-.027.475-.076l.263-.955a1.534 1.534 0 0 1-1.195.572zm9.212.502c.015-.038.051-.117.1-.226-.05.11-.085.189-.1.226zm-2.452-.656l.357-.625-.242-2.54c-.105-1.112-.524-2.057-1.22-2.763l-.507-.508h-.001c.726.71 1.162 1.674 1.269 2.813l.344 3.623zm-4.442 4.892c-1.318.449-2.814 1.228-3.653 1.73l.46.458c.969-.573 2.327-1.284 3.648-1.72l1.47-5.384-.15-1.593-1.775 6.51z" fill="#B6922E" fill-rule="nonzero"/><path d="M470.124 468.642c-.378-.561-.42-1.528-.241-2.141l2.714-9.754c.049-.164.133-.225.288-.334.211-.151.503-.358.654-.908l.132-.48-3.372.827-4.845 8.5-.357.625-.344-3.623c-.107-1.139-.543-2.103-1.27-2.813a4.026 4.026 0 0 0-.33-.29c-.87-.687-2.014-1.003-3.222-.89a4.453 4.453 0 0 0-2.88 1.461 4.446 4.446 0 0 0-1.17 2.984c0 1.078.346 2.017.97 2.641.436.435.977.685 1.487.685.482 0 .912-.224 1.194-.573l-.263.955-.966 3.513c-.046.16-.15.574-.326.692a1.85 1.85 0 0 0-.737 1.027l-.238.853c.839-.502 2.336-1.281 3.653-1.73l1.775-6.509.15 1.593.396 4.232c.456-.121 1.196-.26 1.776-.332l3.703-6.493-.68 2.457-.163.59-.063.226a.655.655 0 0 0-.008.029c-.345 1.22-.084 2.515.667 3.3.622.648 1.518.874 2.527.637l.244-.06-.03-.488-.251-.027a.703.703 0 0 1-.192-.051.867.867 0 0 1-.382-.331zm-8.959-9.11l-.99.243-.046.165c-.167.6.241.767.394.829l.044.017-.71 2.59a1.514 1.514 0 0 0-.434-.866 1.523 1.523 0 0 0-1.085-.45c-.146 0-.288.028-.427.068-.066.02-.135.037-.199.065a1.436 1.436 0 0 1-.325-.911c0-1.214.963-2.256 2.192-2.371a2.407 2.407 0 0 1 1.799.569l-.213.052z" fill="#FFF" fill-rule="nonzero"/><path d="M460.412 469.642l2.16-7.903.665 7.087c.237-.05.808-.17 1.335-.242l4.79-8.4-1.539 5.557c-.53 1.87.49 4.13 2.844 3.574-1.084-.115-1.366-1.858-1.066-2.893l2.715-9.756c.17-.577.715-.416.942-1.238l-2.768.677-5.595 9.819-.432-4.542c-.24-2.552-2.23-3.943-4.505-3.73-2.13.201-3.784 2.057-3.784 4.154 0 2.026 1.25 3.033 2.164 3.033a1.245 1.245 0 1 0-.684-2.283 1.722 1.722 0 0 1-.559-1.274c0-1.369 1.064-2.53 2.457-2.662a2.712 2.712 0 0 1 2.387 1.023l-1.528.375c-.187.674.59.295.431.874l-2.324 8.427c-.26.947-.72.473-1.044 1.665a20.976 20.976 0 0 1 2.938-1.342zm12.175-1.136h-.23v.625h-.156v-.625h-.229v-.136h.615v.136zm1.04.625h-.155v-.606h-.004l-.22.606h-.15l-.213-.606h-.004v.606h-.155v-.761h.269l.177.497h.003l.185-.497h.268v.76z" fill="#0A2351" fill-rule="nonzero"/></g><g><path d="M480 480h30v30h-30z"/><path d="M494.527 499.388a9.78 9.78 0 0 0 2.231.077l.046-12.745c1.847.054 3.789.267 5.528.772.133.749 1.212 2.199 2.356 2.356 0 0-.44-2.724-.318-4.136-2.506-.703-10.626-1.571-17.442-.09 0 0-.025 3.483-.49 4.18 0 0 2.238-.583 2.741-2.572 0 0 2.39-.423 5.468-.51l-.04 4.417-.002.172-.078 8.079zm-.027 2.847l-.008.924-1.28 2.127 5.13-.099-1.597-1.952.003-.95a13.19 13.19 0 0 1-.62.032c-.566.01-1.106-.02-1.628-.082zm4.5.788l-.111.302h-.005l-.186-.53h-.286v.808h.164v-.64h.003l.227.64h.158l.035-.098.2-.543h.003v.64h.165v-.806h-.284l-.084.228zm-.979.58v-.661h.243v-.147h-.65v.147h.243v.66h.164z" fill="#002B5C" fill-rule="nonzero"/><path d="M496.799 488.35l-.01 2.85c2.931.168 5.288 1.584 5.733 3.433l2.882-.056c-.432-3.359-4.072-5.984-8.605-6.227z" fill="#D31145" fill-rule="nonzero"/><path d="M496.758 499.465a9.78 9.78 0 0 1-2.23-.077c-2.812-.41-4.918-1.992-4.953-3.926-.039-1.988 2.117-3.687 5.03-4.153l.001-.172.024-2.58c-2.379.328-4.61 1.53-6.088 3.068-1.233 1.493-3.219 3.452-4.042 3.766 0 0 3.094 2.536 3.699 3.534 1.318 1.662 3.472 2.982 6.3 3.31.523.063 1.063.093 1.629.082.209-.004.414-.018.62-.032 4.256-.284 7.702-2.635 8.516-5.663l-3.05.058c-.83 1.48-2.925 2.591-5.456 2.785z" fill="#D31145" fill-rule="nonzero"/></g><g><path d="M510 510h30v30h-30z"/><path d="M531.887 528.396c0-.24-.076-.477-.212-.677-.217.336-.563.495-.956.399-.349-.083-.625-.333-.628-.565v-5.29l.074.029c.395.161.681.54.766 1.01.017.09.025.184.025.276 0 .32-.121.606-.314.835.361-.075 1.427-.397 1.427-1.744 0-1.242-1.003-2.002-1.936-2.184l-.042-.007v-3.699c.003-.232.28-.482.628-.565.394-.097.74.064.957.399.135-.2.21-.436.21-.677 0-.325-.12-.657-.356-.918-.52-.573-1.377-.574-2.297-.005l-.029.02-.028-.02c-.92-.57-1.779-.568-2.297.005a1.371 1.371 0 0 0-.356.918c0 .24.074.477.211.676.217-.334.564-.495.958-.398.347.083.624.333.627.565v4.134l-.03.016c-.718.373-1.362.9-1.914 1.563l-.04.049-.043-.05s-4.724-5.73-4.735-5.774c.052-.243.368-.473.72-.524.357-.05.659.113.858.42.135-.2.21-.436.21-.677 0-.325-.12-.657-.356-.918-.52-.573-1.379-.574-2.298-.005l-.028.02-.028-.02c-.92-.57-1.778-.568-2.297.005a1.374 1.374 0 0 0-.357.918c0 .241.074.477.21.677.22-.335.565-.496.96-.399.346.083.624.333.626.565v3.71l-.042.008c-.932.207-1.875.958-1.875 2.172 0 1.347 1.07 1.67 1.43 1.744a1.298 1.298 0 0 1-.298-1.065c.068-.46.333-.844.71-1.025l.075-.04v5.27c-.003.232-.28.482-.627.565-.394.096-.74-.063-.958-.399a1.2 1.2 0 0 0-.212.676c0 .325.121.658.357.918.52.574 1.378.575 2.298.008l.028-.019.028.019c.92.567 1.778.566 2.298-.008.236-.26.356-.593.356-.918 0-.24-.075-.476-.21-.676-.219.336-.565.495-.96.399-.347-.083-.622-.333-.627-.565v-4.88l.085.057c1.31.893 2.32 2.718 2.442 3.87v6.037c0 .643-.435 1.135-.853 1.242-.296.073-.554-.055-.734-.327a1.167 1.167 0 0 0-.208.652c0 .286.104.572.31.799.51.563 1.386.545 2.342-.048l.03-.019.029.019c.955.593 1.831.612 2.342.048.205-.226.31-.513.31-.8 0-.229-.076-.454-.21-.65-.173.259-.42.381-.707.31-.425-.108-.88-.625-.88-1.226v-5.956c.028-.41.187-.94.448-1.49l.036-.077.055.067s1.92 2.357 1.932 2.398c-.024.237-.317.478-.67.549a.866.866 0 0 1-.919-.399 1.207 1.207 0 0 0-.205.669c0 .324.119.655.355.915.52.574 1.378.576 2.298.008l.028-.019.03.02c.918.567 1.776.565 2.296-.009.235-.26.356-.593.356-.917zm-6.925-3.393l-.047-.124c-.89-2.345-2.305-3.46-3.337-3.985l-.03-.013v-1.644l3.84 4.716.018.028-.444 1.022zm3.357-.053l-1.05-1.275.029-.033a5.26 5.26 0 0 1 .936-.866l.085-.062v2.236z" fill="#FF5910" fill-rule="nonzero"/></g><g><path d="M540 540h30v30h-30z"/><path d="M563.711 562.388c-.295.355-2.045 2.077-3.555 3.112-.252-3.61-1.988-5.934-4.832-7.916v.002c-.09 1.927-.099 3.618-.03 4.802.059 1.023.549 1.646 1.348 2.298-1.037.236-4.076.192-5.112-.133.119-.088 1.4-.799 1.511-3.112.078-1.663.089-2.892.03-4.921l-.121-.52c-1.385-1.02-2.593-2.07-4.148-3.75 1.423 3.766-.385 8.448-.592 10.167-.07.578-.253 1.75-.193 2.95-.444-.267-2.239-1.438-3.097-2.564 2.505-4.283 4.312-8.49.385-12.315.742-1.112 1.838-2.105 2.712-2.534.92 2.652 2.935 4.757 4.388 5.674-1.113-4.12-2.537-5.467-3.439-5.928.591-1.387 2.549-2.83 3.587-3.2-.475 1.54-.516 2.549-.046 4.194.474 1.66 1.216 3.676 2.045 5.188.446-.771 2.017-4.032 2.43-5.454.417-1.423.417-2.697.238-3.618.905.46 2.846 2.283 3.291 3.173-.949.206-1.393.693-1.956 1.658-.58.994-2.046 4.744-2.86 6.359.86.742 2.356 1.675 3.54 3.099-1.303-5.13.03-9.028 1.75-10.196.8.235 1.822.887 2.565 1.66-2.788 1.17-2.608 4.727-2.624 4.992-.127 2.04.696 5.664 2.24 6.548.336.192.37.205.545.285-.295.355-2.045 2.077-3.555 3.112" fill="#132448" fill-rule="nonzero"/><path d="M563.752 560.442h-.292v.795h-.199v-.795h-.29v-.173h.78v.173zm1.324.795h-.197v-.77h-.005l-.28.77h-.192l-.27-.77h-.007v.77h-.196v-.968h.342l.225.632h.006l.233-.632h.341v.968z" fill="#132448" fill-rule="nonzero"/></g><g><path d="M570 570h30v30h-30z"/><path d="M584.333 585.227l-.833-2.567-.867 2.567z"/><path d="M584.833 585.593l-1.333-4.033-1.367 4.033h2.7zm-.5-.366H582.6l.867-2.567.866 2.567z"/><path d="M591.367 588.227c-.134 0-.267.033-.334.133-1.033 1.133-1.566 1.3-1.8 1.3-.2 0-.433-.1-.7-.867l-3.333-10.066c-.4-1.167-1.1-1.934-2.1-2.267-.3-.067-.567-.1-.867-.1-1.566 0-2.8 1.167-3.233 3.1-.033.167.033.333.2.4s.333.033.433-.133c.3-.434.867-.934 1.434-.934.166 0 .366.034.533.134.567.333.6.6.3 1.5l-.067.233a2.273 2.273 0 0 0-1.166-.333c-.9 0-2 .6-2.2 2.3 0 .133.066.3.2.366.133.067.3.034.4-.066.1-.1.4-.2.766-.2.367 0 .7.133.834.333.2.267.1.667 0 .967l-1.934 5.633c-2 .1-3.466 1.3-3.933 3.2-.033.167.033.333.2.4s.333 0 .433-.133c.2-.334 1.467-1 3.034-1 1.233 0 2.4.366 3.433 1.133.167.1.367.067.467-.067l1.966-2.4c.1-.133.1-.333-.033-.466-.167-.167-.567-.234-.867-.234-.3 0-.866.067-1.4.467a4.296 4.296 0 0 0-1.1-.567l.834-2.466h3.3l1.266 3.766c.434 1.267 1.2 2.1 2 2.1.3 0 .767-.133 1.134-.7 0 0 2.1-3.166 2.366-3.533.2-.3.134-.5.067-.633-.067-.2-.333-.3-.533-.3zm.233.733c-.267.367-2.367 3.533-2.367 3.533-.766 1.2-2 .3-2.533-1.3l-1.333-4h-3.8l-1.034 3.034c.6.166 1.134.466 1.567.8.8-.767 1.867-.567 2-.434l-1.933 2.4c-3.1-2.233-6.5-.8-6.967-.033.5-2.1 2.2-2.933 3.833-2.933l2-5.867c.667-1.967-1.566-2-2.166-1.467.233-2.233 2.233-2.433 3.166-1.433l.234-.7c.3-.933.3-1.433-.467-1.9-.9-.533-1.9.1-2.433.867.566-2.4 2.166-3.1 3.666-2.7.967.3 1.534 1.1 1.867 2.033l3.333 10.067c.367 1.066 1.034 1.933 3.067-.3.033-.067.533-.034.3.333z"/><path d="M591.267 588.593c-2.067 2.234-2.7 1.367-3.067.3l-3.333-10.066c-.3-.934-.867-1.734-1.867-2.034-1.5-.4-3.1.3-3.667 2.7.534-.766 1.534-1.433 2.434-.866.766.466.766.966.466 1.9l-.233.7c-.933-1-2.933-.8-3.167 1.433.6-.567 2.834-.5 2.167 1.467l-2 5.866c-1.667 0-3.333.867-3.833 2.934.466-.734 3.866-2.2 6.966.033l1.967-2.4c-.133-.133-1.2-.367-2 .433-.433-.366-.967-.633-1.567-.8l1.034-3.033h3.8l1.333 4c.533 1.6 1.733 2.5 2.533 1.3 0 0 2.1-3.167 2.367-3.533.233-.334-.267-.367-.333-.334zm-7.767-7.033l1.333 4.033h-2.7l1.367-4.033z" fill="#003831" fill-rule="nonzero"/><path d="M588.267 582.893l1-1.3v-1.6h-1.9v1.934h.266l-.366.966h1zm-.567-2.566h1.2v1.133l-.833 1.067h-.334l.367-.967h-.4v-1.233z"/><path fill="#003831" fill-rule="nonzero" d="M587.733 582.527h.367l.8-1.067v-1.133h-1.2v1.233h.4z"/><path d="M595.3 584.393c-.3-.866-1.233-1.466-1.933-1.6-.4-.066-1.167-.233-1.267-.466 0 0-.033-.067 0-.2.033-.067.2-.167.5-.167.333 0 .8.133 1.033.467l.234.366 1.266-1.3-.166-.233c-.5-.7-1.4-1.133-2.367-1.133-.867 0-1.633.366-2.067 1-.5.7-.633 1.333-.433 1.933.333.9 1.433 1.367 2.333 1.567.534.133.834.333.867.433 0 0 .033.067-.033.167-.167.233-1.234.1-2.1-.7l-.334-.234-1.066 1.434.166.2c.467.566 1.7 1.333 2.9 1.333.8 0 1.5-.333 2-.967.667-.733.634-1.433.467-1.9zm-.7 1.7c-1.433 1.767-3.767.3-4.367-.366l.667-.9c.967.9 2.267 1.133 2.633.633.4-.6-.4-.967-1.033-1.133-1.533-.4-2.9-1.3-1.7-2.967.867-1.233 3-1.067 3.867.167l-.767.766c-.5-.766-1.933-.8-2.133-.2-.234.7.566.9 1.533 1.1.967.134 2.533 1.434 1.3 2.9z"/><path d="M593.3 583.127c-.967-.2-1.767-.4-1.533-1.1.2-.6 1.633-.534 2.133.2l.767-.767c-.867-1.2-3-1.367-3.867-.167-1.2 1.667.167 2.567 1.7 2.967.633.167 1.433.533 1.033 1.133-.333.534-1.633.267-2.633-.633l-.667.9c.6.7 2.934 2.133 4.367.367 1.233-1.4-.333-2.7-1.3-2.9zm-1.4 8.9l-.2.5-.167-.5h-.3v.766h.167v-.633l.233.633h.134l.233-.633v.633h.167v-.766h-.267zm-1.433.133h.233v.633h.167v-.633h.233v-.133h-.633v.133z" fill="#003831" fill-rule="nonzero"/></g><g><path d="M600 600h30v30h-30z"/><path d="M617.618 623.917h-.286v.778h-.194v-.778h-.285v-.17h.765v.17zm1.299.778h-.194v-.755h-.005l-.275.755h-.187l-.266-.755h-.005v.755h-.193v-.948h.335l.221.62h.005l.23-.62h.334v.948z" fill="#E81828" fill-rule="nonzero"/><path d="M622.858 609.493c-.136-2.072-1.893-3.644-3.537-4.26-.53-.167-1.077-.339-1.607-.451-1.747-.378-3.66-.171-5.235.28-2.161.612-4.248 2.304-5.112 4.51-.343.903-.425 2.122.014 3.1.528 1.131 1.7 1.55 2.71 1.55 1.121 0 1.87-.828 2.295-1.578v4.457l-.023 3.022c-.174.218-.384.44-.554.674-.39.6-.917 1.42-.95 2.412 0 .293.016.797.282 1.217.36.646 1.056.923 1.568 1.02.647.102 1.29-.004 1.824-.193 1.187-.45 2.248-1.575 2.449-2.924l.008-.047.026-5.748c.446-.176.897-.352 1.342-.548.568-.254 1.142-.54 1.688-.9 1.96-1.154 3.048-3.276 2.812-5.593zm-3.967 1.456c-.123.617-.765 1.22-1.492 1.469-.12.044-.245.076-.378.105l.02-3.829c.751-.012 1.332.211 1.61.654l.17.406c.044.208.087.42.104.634.02.21.008.408-.034.561z" fill="#FFF"/><path d="M622.364 609.529c-.113-1.844-1.739-3.277-3.2-3.825l-.01-.004c-.449-.142-1.008-.322-1.545-.434-2.002-.434-3.99-.016-4.995.271-2.142.608-4.021 2.261-4.787 4.213-.339.89-.337 1.955.004 2.717.37.79 1.214 1.263 2.26 1.263.845 0 1.62-.654 2.074-1.751.007-.016.052-.161.052-.161.074-.232.15-.47.15-.741v-.186h-.186c-.121 0-.256-.048-.384-.093l-.092-.03a.31.31 0 0 1-.089-.2c.098-.563.562-1.124 1.265-1.542v8.082l-.027 3.178c-.052.068-.292.365-.292.365l-.342.424c-.376.574-.836 1.282-.867 2.14v.002c0 .3.025.671.218.963.204.382.65.67 1.22.779a3.237 3.237 0 0 0 1.57-.17c1.113-.42 1.967-1.438 2.132-2.532.003-.026.026-5.517.028-6.035l.021-.036a13 13 0 0 0 .146-.056c1.047-.406 2.128-.828 3.101-1.467a5.23 5.23 0 0 0 2.606-4.555c0-.193-.01-.385-.03-.579zm-2.99 1.528c-.178.897-1.037 1.562-1.811 1.828-.327.117-.688.17-1.042.218l.028-4.877c.034 0 .309-.02.309-.02.614-.036 1.721.04 2.237.924l.207.492c.058.289.13.623.13.957 0 .162-.017.321-.057.478z" fill="#E81828"/></g><g><path d="M630 630h30v30h-30z"/><path d="M651.532 641.457c0-1.068.15-2.227.819-3.38-1.769-.438-3.131-2.103-3.572-3.577-.733.716-1.45.884-2.59.884l-7.595-.01-1.034 2.585c.623.27 1.034.861 1.034 1.574v11.845c0 .71-.411 1.302-1.034 1.572l1.034 2.505h2.9l1.034-2.504a1.69 1.69 0 0 1-1.035-1.573v-4.671l4.697.003c1.138 0 1.856.28 2.589.996.48-1.472 1.918-2.57 3.685-3.009-.671-1.152-.932-2.174-.932-3.24zm-4.011 2.679h-6.013v-6.267h6.013c.953 0 1.55.6 1.55 1.397v3.58c0 .835-.473 1.29-1.55 1.29z" fill="#FDB827" fill-rule="nonzero"/><path d="M642.757 655.348v-.643h.236v-.136h-.63v.136h.234v.643m1.46 0v-.78h-.273l-.19.51h-.003l-.182-.51h-.275v.78h.16v-.62h.003l.22.62h.151l.227-.62h.004v.62" fill="#FDB827" fill-rule="nonzero"/></g><g><path d="M660 660h30v30h-30z"/><path d="M677.647 668.718l-7.21.001c-.057 0-.06.09 0 .098.056.008.984.085.984.936v2.352c-.667 0-2.126.002-2.19 0-.36-.005-.482-.262-.501-.464l.001-3.396c.021-1.067.598-1.612 1.601-1.612l4.848-.002c.28 0 .524.137.524.48 0 .345-.365.444-.43.475-.027.016-.033.059-.002.059h2.71l-.001-.894c-.022-.656-.457-2.25-2.492-2.25l-5.464-.001c-2.003 0-3.434 1.463-3.425 3.378v3.78c0 1.295 1.089 2.575 2.617 2.575h6.11c.422 0 .535.384.535.532l-.005 3.325c.002.871-.508 1.557-1.414 1.557h-.89v-4.585h-2.131v4.585h-2.243c-.38-.013-.447-.373-.447-.534l-.002-2.065c0-.55.674-.728.839-.77.02-.005.035-.016.032-.04-.002-.02-.015-.03-.028-.03H666.6v3.184c-.007 1.126.922 2.387 2.275 2.387h2.547v2.298a1.72 1.72 0 0 1-.089.505c-.197.52-.679.774-.897.821-.056.013-.056.076-.01.086l.004.002h7.191c3.026 0 4.718-1.473 4.718-4.456v-7.879c0-3.01-1.698-4.439-4.693-4.439zm2.561 12.662c0 1.384-1.089 2.125-2.463 2.125l-4.192.002v-1.728h1.128c2.003 0 3.315-1.45 3.315-3.354v-3.922c0-.82-.67-2.399-2.618-2.399h-1.825V670.7h4.283c1.44 0 2.372 1.036 2.372 2.375v8.304zM681.791 684.862h.232v.629h.156v-.63h.232v-.137h-.62zM683.19 684.724l-.186.501h-.003l-.179-.5h-.271v.766h.157v-.61h.003l.215.61h.151l.222-.61h.004v.61h.157v-.767z" fill="#002D62" fill-rule="nonzero"/></g><g><path d="M690 690h30v30h-30z"/><path d="M703.81 703.84v2.113s2.684.172 3.506-.325c-.147.466-.101 1.992 0 2.246-1.04-.533-3.507-.32-3.507-.32v2.125h3.977l.847-.985v-3.642l-.981-1.14c-.584-.064-2.67-.072-3.842-.072zm-6.154-7.554c.826-.394 1.705-1.226 2.017-1.786.796.376 8.114.32 8.96 0 .51.746 1.058 1.163 1.831 1.416-.072.715-.05.969.184 1.543h-2.015l-.846-.945h-7.176l-.94.827v3.806l.937.907 1.186.05c0-1.414.015-1.684-1.025-1.96.346-.693.416-.774.507-1.639.89.299 10.086.136 10.485-.093-.064.9.445 2.611.787 3.25h-2.015c-.103-.7-.545-1.242-1.248-1.374h-5.476v1.815s4.26.116 4.824-.077c.28.728 1.287 1.794 2.014 2.09-.244 1.484-.198 4.022 0 5.562-.792.394-1.601 1.202-2.014 2.017-1.002-.277-4.824-.14-4.824-.14v1.14c.198.778.615.965 1.349 1.029 0 0-.59 1.107-.613 1.756h-3.443c-.015-.633-.614-1.756-.614-1.756.662-.031 1.205-.422 1.306-1.029v-1.14s-1.208-.046-2.122.14c-.276-.62-1.284-1.731-2.016-2.017.17-.445.09-3.228-.156-3.814h2.173l-.002 2.83.847.985h1.276v-5.838s-1.117-.055-2.121.021c-.289-.561-1.15-1.466-2.017-1.893.27-1.028.294-4.713 0-5.683z" fill="#FD5A1E" fill-rule="nonzero"/><path d="M706.022 714.635h-.245v.665h-.165v-.665h-.243v-.146h.653v.146zm1.109.665h-.166v-.644h-.005l-.233.644h-.16l-.227-.644h-.005v.644h-.164v-.811h.286l.188.53h.004l.196-.53h.285v.811z" fill="#FD5A1E" fill-rule="nonzero"/></g><g><path d="M720 720h30v30h-30z"/><path d="M735.644 732.066c.16.043.314.1.46.17l.391-.249c-.315-.17-.64-.354-.951-.553l.1.632zm-1.756 5.009h.002l-.002-.002v.002zm-.195-.098v0z" fill="#005C5C" fill-rule="nonzero"/><path d="M739.852 735.021l-.535.092-.023.004c.451.82.722 1.833.722 3.096 0 3.793-2.466 6.48-5.318 6.48-1.829 0-2.544-.72-2.987-.858l-1.973.714v-6.226c.472.055.874.484 1.096.927.876 1.752 1.87 3.238 3.753 3.238 1.108 0 1.842-1.022 1.842-2.475 0-.809-.361-1.45-.895-1.998l-.015.09-.111.687c.312.445.475.89.475 1.32 0 .54-.14 1.794-1.435 1.794-1.771 0-2.774-2.239-3.202-3.195-.33-.74-1.26-1.218-1.805-1.278l-.283-.032v7.986s2.313-.83 2.485-.893c.058.026.118.05.118.05.687.294 1.725.736 2.826.736 2.957 0 6.016-2.623 6.016-7.013 0-1.214-.255-2.302-.751-3.246zm-2.346-2.474c-.04.092-.085.19-.134.294l-.079.174-.014.031c.497.31.956.68 1.352 1.128l.025.004c.252.043.508.086.757.13a6.641 6.641 0 0 0-1.907-1.76zm-.253-7.082c-.643-.482-1.67-.965-2.805-.965-2.155 0-5.346 1.98-5.346 6.234 0 1.44.314 2.629.976 3.63.172-.028.356-.06.55-.093l.073-.012c-.621-.867-1.017-2.011-1.017-3.664 0-3.184 2.549-5.562 4.806-5.562.928 0 2.059.62 2.668 1.104.359-.122 1.672-.662 1.672-.662v5.66c-.393-.097-.829-.388-1.03-.733-.858-1.468-1.398-3.122-2.84-3.122-1.107 0-1.633.796-1.633 1.904 0 .772.403 1.46 1.05 2.064l.008-.05.099-.617c-.366-.396-.606-.84-.606-1.341 0-.41.096-1.363.986-1.363.971 0 1.457.91 1.661 1.452.194.514.648 1.348 1.284 1.919l.351-.202-.158.345s.002-.006 0 0c.336.255.715.443 1.136.484l.28.026v-7.238s-1.95.723-2.165.801z" fill="#005C5C" fill-rule="nonzero"/><path d="M733.67 732.396h.001zm2.322 4.67zm.828 2.964c0 1.906-1.047 2.884-2.166 2.884-3.25 0-3.972-3.566-4.513-3.904v4.966c.456-.099 1.48-.636 1.48-.636.452 0 1.317.978 2.942.978 2.456 0 5.054-2.407 5.054-6.018 0-1.34-.312-2.331-.802-3.107l-1.268.202a2.704 2.704 0 0 1-.346.766l.066.149c.069.15.874 2.106.874 2.106l-2.05-1.287c-.14.068-.288.124-.44.165-.015.085-.029.178-.044.274.72.602 1.213 1.338 1.213 2.462zm.21-3.797h-.001zm-4.714-.846a.124.124 0 0 1-.023-.003c.01.007.02.014.028.023l-.005-.02zm.238-2.437c-.559-1.243-.741-1.922-.741-1.922l1.95 1.207a2.79 2.79 0 0 1 .484-.178l.048-.296c-.806-.61-1.374-1.36-1.374-2.566 0-1.453.884-2.332 1.86-2.332 2.345 0 2.631 2.903 3.645 3.636v-4.437c-.383.154-1.227.526-1.227.526-.217 0-.505-.275-.938-.576-.434-.277-1.012-.552-1.77-.552-2.076 0-4.426 2.081-4.426 5.164 0 1.591.418 2.715 1.046 3.569.324-.052.799-.13 1.197-.192.075-.29.197-.56.357-.803-.065-.143-.11-.248-.11-.248zm3.114 4.235zm1.887-3.193c.08.015.165.029.25.043a6.482 6.482 0 0 0-.319-.26c.026.07.049.144.069.217zm-5.14-.01v.001-.001z" fill="#C4CED4" fill-rule="nonzero"/><path d="M733.205 732.724a3.153 3.153 0 0 0 .01-.007c-.004 0-.007.004-.01.007z" fill="#C4CED4" fill-rule="nonzero"/><path d="M734.215 733.469a.27.27 0 0 1-.044.027s-.05-.01-.072-.027h-.001a.02.02 0 0 1-.007-.01l.14-.094c.024-.165.053-.356.086-.565l.106-.68a2.647 2.647 0 0 0-.752.277v-.001c-.037.02-.072.04-.106.061l-.007.005a2.35 2.35 0 0 0-.19.13l-.02.014-.095.077c.012.01.033.03.036.04 0 0-.049.175-.07.182l-.032-.032c-.022.006-.138.042-.188.053-.029.032-.056.065-.083.096l-.004.004a1.774 1.774 0 0 0-.076.1 1.99 1.99 0 0 0-.123.18c-.03.047-.058.096-.084.146l-.013.023a3.875 3.875 0 0 0-.075.155l-.001.004c-.024.055-.046.11-.067.166l-.001.005c-.022.058-.04.119-.057.177v.002a2.668 2.668 0 0 0-.046.192l.876-.138c.454-.07.798-.12.911-.13l.007-.06c.01-.082.028-.212.053-.379zm-1.076-.414s-.054-.033-.052-.056c0 0 .208-.065.219-.063l.044.027.046-.166.003-.016.015.008s.052.03.058.045c0 0-.05.183-.069.19 0 0-.03-.017-.047-.031-.013.003-.206.062-.217.062zm.158.079s.202-.076.212-.075l.05.024.027-.167.003-.018.016.009s.056.028.063.04c0 0-.03.185-.05.195 0 0-.033-.015-.051-.03-.01.004-.202.075-.212.075 0 0-.06-.03-.058-.053zm.24.123s.197-.083.208-.083l.053.021.013-.168v-.017l.017.007s.06.025.068.036c0 0-.016.186-.033.198 0 0-.036-.014-.055-.027-.004.001-.196.083-.206.083 0 0-.064-.026-.064-.05zm.326.156s-.048-.013-.067-.031c-.003-.003-.007-.008-.008-.012 0 0 .18-.103.189-.104l.059.015-.02-.165-.002-.02.019.006s.066.017.076.029c0 0 .02.186.005.199l-.063-.02c-.004.001-.178.102-.188.103z" fill="#FFF" fill-rule="nonzero"/><path d="M733.18 732.837l.034-.12c-.04.034-.079.07-.116.107a.175.175 0 0 1 .051-.011l.03.024zm-.805 2.375a2.589 2.589 0 0 0 .57 1.158l.008.013.101.11a.15.15 0 0 1-.008-.036s.045-.037.064-.033c0 0 .055.148.052.162l-.007.006.059.053.115.045-.017.014-.015.011a1.729 1.729 0 0 0 .107.08l.083.06.008.003c.03.022.062.04.093.06l.004.002c.032.019.066.039.1.057l.002.001c.063.035.128.065.195.095l.001.002a2.616 2.616 0 0 0 .529.166 160.445 160.445 0 0 1-.159-1.017c-.017.002-.035.007-.042.005 0 0-.12-.099-.151-.142l-.005-.002.001-.002a.019.019 0 0 1-.005-.012l.066-.014c.004-.028.024-.153.032-.162 0 0 .03-.007.054-.01-.016-.109-.029-.2-.038-.274l-.002.002.002-.005a3.98 3.98 0 0 1-.015-.127c-.113-.01-.452-.06-.9-.13a146.48 146.48 0 0 1-.882-.14zm.952 1.238l-.032.027.197.076-.016.013s-.04.036-.053.039c0 0-.153-.059-.193-.09h-.001c-.005-.003-.007-.006-.008-.01l.039-.03c-.01-.03-.051-.141-.05-.154 0 0 .046-.037.065-.032 0 0 .055.146.052.16v.001zm.515-.297c.003-.024.025-.154.033-.163 0 0 .064-.026.082-.012 0 0-.026.16-.034.168l-.042.016.18.12-.022.009s-.06.024-.072.023c0 0-.134-.088-.17-.128l-.005-.003h.002c-.004-.004-.006-.008-.006-.011 0 0 .031-.013.054-.019zm-.206-.068s.059-.03.078-.02c0 0 .004.157-.003.169l-.037.02.189.109-.022.01s-.056.027-.068.025c0 0-.137-.078-.176-.114l-.006-.003.002-.001c-.005-.005-.008-.009-.008-.012l.05-.021c-.001-.026-.005-.151.001-.162zm-.132.081s.017.155.011.168l-.035.02.193.098-.02.011s-.05.03-.063.032c0 0-.147-.075-.185-.11h-.003.001c-.004-.005-.007-.008-.007-.011l.043-.023c-.002-.027-.015-.15-.01-.162 0 0 .056-.033.075-.023z" fill="#FFF" fill-rule="nonzero"/><path d="M734.157 736.073l.092.076-.022-.153a.282.282 0 0 1-.016.063l-.054.014zm1.581-.592l-.008.07c-.01.08-.027.202-.05.356l.031-.019s.051.01.071.027l.001.002c.004.003.007.006.008.01l-.126.086-.088.573-.103.65c.065-.015.13-.03.194-.05a2.884 2.884 0 0 0 .518-.215c.037-.023.073-.042.109-.066l.005-.002.095-.062.013-.009c.029-.02.058-.04.085-.061l.018-.013a3.35 3.35 0 0 0 .096-.076.067.067 0 0 1-.015-.019s.048-.174.07-.182c0 0 .02.018.032.032l.133-.039a3.523 3.523 0 0 0 .11-.124c.032-.04.062-.078.091-.117h.001a2.742 2.742 0 0 0 .287-.489 2.9 2.9 0 0 0 .122-.332 2.87 2.87 0 0 0 .049-.192l-.854.134a24.53 24.53 0 0 1-.895.127zm.13.807l-.019-.004s-.067-.019-.076-.029c0 0-.021-.186-.006-.2 0 0 .043.012.064.021.005-.003.178-.103.187-.105 0 0 .049.013.068.033h.001c.003.003.006.008.006.012 0 0-.178.103-.188.104l-.059-.017.022.185zm.27-.076l-.053-.021-.015.184-.016-.006s-.06-.025-.069-.038c0 0 .016-.184.033-.196 0 0 .036.014.056.027.005-.003.197-.084.206-.084 0 0 .064.027.064.05 0 0-.197.084-.206.084zm.235.115l-.05-.025-.03.184-.015-.007s-.057-.027-.064-.042c0 0 .03-.185.05-.193 0 0 .032.015.051.028.01-.003.202-.073.212-.073 0 0 .04.02.053.04h.002-.001c.003.006.005.009.005.013 0 0-.203.075-.213.075zm.422.06s-.21.064-.22.061l-.043-.025-.05.182-.014-.009s-.051-.03-.058-.044c0 0 .05-.184.068-.191 0 0 .03.017.047.031.015-.004.208-.063.218-.061 0 0 .055.033.052.056z" fill="#FFF" fill-rule="nonzero"/><path d="M736.683 736.616l.048-.044-.03-.023-.018.067zm-1.11-3.82l.055.365c.015-.003.03-.006.035-.004 0 0 .12.097.152.14l.006.005-.002.001c.003.004.005.009.005.012 0 0-.043.011-.066.014-.005.029-.024.153-.032.162 0 0-.025.006-.048.008l.038.274.016.133c.115.012.45.06.891.128l.87.135c-.005-.033-.014-.066-.022-.1a2.592 2.592 0 0 0-.646-1.185.168.168 0 0 1 .01.044s-.044.038-.064.033c0 0-.054-.147-.052-.162l.012-.01-.045-.042-.131-.05.016-.015.02-.017c-.03-.024-.06-.048-.092-.071l-.011-.009a2.956 2.956 0 0 0-.29-.188 2.577 2.577 0 0 0-.73-.272l.105.672zm.467.437a1.433 1.433 0 0 1-.032.163s-.066.026-.083.011c0 0 .025-.157.033-.169l.042-.015-.181-.12.024-.008s.06-.024.072-.023c0 0 .133.087.169.126l.005.003-.001.001.006.012-.054.019zm.205.068s-.058.03-.077.019c0 0-.004-.156.002-.168l.038-.02-.188-.109.02-.01s.056-.027.069-.027c0 0 .138.08.177.118l.005.001-.001.001c.003.005.006.009.006.012 0 0-.028.013-.048.02 0 .03.004.152-.003.163zm.208-.104s-.056.031-.075.023c0 0-.018-.155-.012-.168l.036-.02-.194-.098.02-.013s.051-.028.063-.03c0 0 .15.075.187.11h.001c.004.004.007.008.007.01 0 0-.025.015-.044.024.003.029.016.15.01.162zm.2-.327a.049.049 0 0 1 .008.007s-.022.022-.039.033c.01.029.052.142.049.155 0 0-.045.037-.065.031 0 0-.055-.146-.052-.16l.032-.027-.197-.076.016-.014s.04-.035.054-.038c0 0 .154.059.193.09z" fill="#FFF" fill-rule="nonzero"/><path d="M735.725 733.313l-.085-.07.02.129a.168.168 0 0 1 .01-.045l.055-.014z" fill="#FFF" fill-rule="nonzero"/><path d="M736.662 736.482c-.02.007-.069.181-.069.181a.065.065 0 0 0 .014.02l.018-.017c.008-.005.016-.014.024-.02a.037.037 0 0 1 .009-.007c.008-.009.017-.016.026-.023l.018-.067.029.023c.01-.01.018-.02.028-.028l.035-.034.034-.036c-.053.014-.116.034-.133.039-.013-.015-.033-.032-.033-.032z" fill="#D50032" fill-rule="nonzero"/><path d="M736.478 736.361c-.017.007-.068.19-.068.19a.233.233 0 0 0 .058.045l.015.009.05-.182.043.026c.01.002.22-.062.22-.062.002-.023-.053-.056-.053-.056-.01-.001-.203.057-.218.062-.017-.015-.047-.032-.047-.032zm.103-.122c-.015-.02-.055-.04-.055-.04-.009 0-.2.07-.211.073-.019-.013-.052-.028-.052-.028-.018.008-.05.193-.05.193.008.014.065.042.065.042l.015.007.03-.184.05.024c.01 0 .212-.074.212-.074 0-.004-.002-.007-.004-.013zm-.301-.162c-.01 0-.2.082-.206.085-.02-.013-.056-.027-.056-.027-.017.011-.033.196-.033.196.009.013.069.037.069.037l.016.007.015-.184.053.021c.01 0 .206-.084.206-.084 0-.024-.064-.05-.064-.05zm-.187-.061c0-.005-.003-.009-.007-.012h.001-.001a.182.182 0 0 0-.068-.033c-.009.002-.182.102-.187.105-.021-.009-.063-.02-.063-.02-.016.013.005.2.005.2.01.01.076.028.076.028l.02.004-.022-.184.058.017a4.24 4.24 0 0 0 .188-.105zm-.31-.1c-.02-.018-.071-.028-.071-.028l-.032.019-.015.106.126-.086c0-.004-.003-.007-.008-.01zm-1.66.141c-.022.003-.065.015-.065.015a.02.02 0 0 0 .005.011l-.001.002.005.002c.031.043.15.142.15.142.007.002.026-.003.043-.005l-.011-.075-.092-.076.054-.014a.256.256 0 0 0 .016-.063l-.017-.11c-.025.002-.054.01-.054.01a1.105 1.105 0 0 0-.033.161zm-.33.126l.004.003c.036.04.17.128.17.128.011.001.072-.023.072-.023l.023-.009-.181-.12.043-.016c.008-.008.033-.167.033-.167-.017-.015-.082.011-.082.011-.008.009-.03.139-.033.163-.023.006-.054.02-.054.02 0 .002.002.006.006.01h-.002zm-.208.085c0 .003.003.007.008.012l-.002.001.006.003c.039.036.176.114.176.114a.31.31 0 0 0 .068-.025l.022-.01-.19-.11.039-.02c.006-.011.002-.167.002-.167-.019-.012-.078.018-.078.018-.006.012-.002.136-.002.162a1.93 1.93 0 0 0-.048.022zm-.156-.079c-.006.012.008.135.01.162l-.043.023c0 .003.003.006.008.01h-.002l.003.001c.038.035.185.11.185.11.013-.002.064-.032.064-.032l.02-.012-.194-.097.035-.02c.006-.013-.011-.168-.011-.168-.019-.01-.075.023-.075.023zm-.218.132c-.003.013.038.125.048.155l-.038.03c0 .003.003.006.008.01.04.03.194.089.194.089.012-.003.053-.039.053-.039l.016-.013-.197-.076.031-.027c.003-.014-.051-.16-.051-.16-.02-.006-.065.031-.065.031zm-.1.103c-.02-.004-.064.033-.064.033a.14.14 0 0 0 .008.036.664.664 0 0 0 .038.04l.047.044.015.015.007-.006c.003-.014-.052-.162-.052-.162zm.218.265l-.115-.044.028.024.029.026.006.005.02.015.015-.011.017-.015zm-.11-3.785c.021-.007.07-.182.07-.182-.003-.01-.024-.028-.036-.04l-.039.035-.035.12-.03-.024a.164.164 0 0 0-.052.011l-.032.033a.576.576 0 0 0-.035.036l-.03.033c.049-.012.165-.047.187-.053a.773.773 0 0 0 .032.031z" fill="#D50032" fill-rule="nonzero"/><path d="M733.403 733.025c.019-.008.068-.191.068-.191-.005-.014-.058-.044-.058-.044l-.014-.009-.003.016-.046.166-.044-.027a4 4 0 0 0-.219.063c-.003.023.052.056.052.056.01 0 .204-.059.217-.062.017.015.047.032.047.032zm.215.117c.02-.01.05-.195.05-.195-.007-.013-.063-.04-.063-.04l-.016-.009-.003.018-.028.167-.049-.024c-.01-.001-.212.074-.212.074-.002.023.058.053.058.053.01 0 .202-.07.212-.074.018.014.051.03.051.03zm.245.11c.018-.012.033-.199.033-.199-.008-.011-.068-.036-.068-.036l-.016-.007v.018l-.015.167-.053-.021c-.01 0-.207.083-.207.083 0 .024.065.05.065.05.01 0 .202-.082.206-.083.02.013.055.027.055.027zm.246-.121c-.01-.012-.076-.03-.076-.03l-.02-.005.003.02.02.165-.06-.016c-.009.002-.188.105-.188.105 0 .004.005.009.007.012h.001c.019.018.067.031.067.031.01-.001.184-.102.187-.103.023.009.063.02.063.02.017-.013-.004-.2-.004-.2zm-.01.338h-.001.001c.021.017.072.027.072.027a.257.257 0 0 0 .044-.027l.016-.104c-.05.032-.14.094-.14.094l.007.01zm1.66-.14c.022-.003.064-.015.064-.015.001-.003-.001-.007-.005-.011l.003-.002-.006-.004c-.033-.043-.152-.14-.152-.14a.144.144 0 0 0-.035.004l.012.082.086.07-.055.014a.174.174 0 0 0-.011.045l.018.127c.023-.002.048-.008.048-.008.008-.009.027-.133.032-.162zm.33-.128l-.005-.003c-.036-.039-.169-.126-.169-.126a.414.414 0 0 0-.072.023l-.024.009.181.119-.042.015c-.008.012-.033.17-.033.17.017.014.083-.012.083-.012.007-.009.029-.14.033-.163l.053-.02c0-.002-.003-.006-.006-.01l.001-.002zm.201-.094l.001-.002-.005-.002c-.038-.037-.177-.117-.177-.117-.013 0-.068.027-.068.027l-.021.01.188.11-.038.02c-.006.01-.002.167-.002.167.019.011.078-.019.078-.019.006-.011.002-.133.002-.163a.567.567 0 0 0 .048-.02c0-.003-.003-.007-.006-.011zm.196-.095c0-.003-.003-.007-.008-.01l.001-.002h-.001a1.388 1.388 0 0 0-.187-.109c-.012.002-.063.03-.063.03l-.02.014.194.097-.035.02c-.007.013.011.168.011.168.019.008.075-.023.075-.023.005-.012-.009-.133-.011-.162.02-.009.044-.023.044-.023zm-.08-.194l-.017.015.198.076-.033.027c-.003.014.053.16.053.16.02.006.064-.031.064-.031.003-.013-.039-.126-.049-.155.017-.011.04-.031.04-.031l-.009-.009c-.04-.03-.194-.089-.194-.089a.271.271 0 0 0-.054.037zm.365.142c.02.006.064-.033.064-.033a.168.168 0 0 0-.01-.043l-.04-.043-.039-.036a.136.136 0 0 0-.015-.015l-.012.008a1.31 1.31 0 0 0 .052.162zm-.217-.264l.131.05-.035-.03a.161.161 0 0 1-.02-.018l-.02-.017-.02-.016-.02.017-.016.015z" fill="#D50032" fill-rule="nonzero"/><path d="M734.172 735.612v-.003a.01.01 0 0 1-.002.004l.003-.001zm-1.618-2.662l.11.248c.04-.061.081-.119.126-.176-.364-.809-.73-1.621-.717-1.625 0 0 .757.471 1.502.938a2.73 2.73 0 0 1 .187-.1c-.707-.439-1.95-1.207-1.95-1.207s.183.68.742 1.922zm5.243 5.026s-.749-.467-1.513-.947a3.06 3.06 0 0 1-.193.1l2.05 1.287s-.806-1.956-.874-2.106l-.066-.15c-.04.062-.081.121-.125.177.373.831.735 1.634.72 1.64z" fill="#0C2C56" fill-rule="nonzero"/><path d="M733.14 732.65c.134-.12.28-.224.435-.315-.745-.467-1.502-.938-1.502-.938l1.067 1.252zm3.576-.008c.134.118.256.247.364.388.366-.793.758-1.606.756-1.636l-1.12 1.248zm-3.54 4.102a2.801 2.801 0 0 1-.37-.384c-.366.81-.727 1.613-.713 1.62l1.084-1.236zm3.545-.03a2.72 2.72 0 0 1-.437.315c.764.48 1.513.947 1.513.947l-1.076-1.262z" fill="#C4CED4" fill-rule="nonzero"/><path d="M735.714 733.905a35.283 35.283 0 0 0-.77.79 33.76 33.76 0 0 1 .77-.79zM734.943 734.696a.113.113 0 0 1 .009.008l-.007-.008h-.002z" fill="#FFF" fill-rule="nonzero"/><path d="M735.714 733.905l.018.001-.016-.133-.039-.274-.018-.127a13.229 13.229 0 0 1-.02-.13l-.011-.081-.055-.364-.105-.672-.016-.105c-.22-1.391-.49-3.024-.509-3.017v5.691a36.204 36.204 0 0 1 .77-.79z" fill="#C4CED4" fill-rule="nonzero"/><path d="M732.37 734.176c.012-.066.028-.13.045-.193v-.001c.016-.059.035-.119.056-.176l.002-.006c.021-.056.043-.112.067-.167v-.004c.024-.051.05-.103.076-.154l.013-.023a1.953 1.953 0 0 1 .208-.327c.024-.035.05-.067.075-.099l.004-.004c.026-.032.054-.065.083-.096l.03-.033.036-.036a3.843 3.843 0 0 1 .14-.133c.003-.003.005-.006.009-.007l.039-.035a3.35 3.35 0 0 1 .095-.076l.019-.014.083-.06.014-.009a2.19 2.19 0 0 1 .094-.062l.007-.004c.034-.022.07-.041.105-.062h.001a2.638 2.638 0 0 1 .558-.23c.064-.018.129-.032.194-.046l-.106.68c-.033.21-.062.4-.086.565l-.016.105a20.006 20.006 0 0 0-.059.438l.014-.001c.197.182.713.712.773.788v-5.69c-.013-.004-.283 1.623-.504 3.012-.065.011-.13.026-.192.041a2.803 2.803 0 0 0-.672.279c-.155.09-.3.195-.435.313l-1.067-1.252c-.013.004.353.816.717 1.625a2.685 2.685 0 0 0-.524 1.17c.035-.007.069-.01.103-.017z" fill="#005C5C" fill-rule="nonzero"/><path d="M734.943 734.696v-.002a4.254 4.254 0 0 1-.23.246l-.12.124-.227.23a7.585 7.585 0 0 1-.196.189c-.004 0-.01 0-.014-.002l.015.128.001.001.038.275.016.11.023.154.011.075a143.344 143.344 0 0 0 .158 1.018l.017.102c.22 1.395.495 3.044.508 3.042v-5.69z" fill="#C4CED4" fill-rule="nonzero"/><path d="M736.284 737.029a2.72 2.72 0 0 0 .437-.315l1.076 1.262c.014-.005-.348-.808-.721-1.64a2.703 2.703 0 0 0 .516-1.134l-.105.018a2.958 2.958 0 0 1-.107.369c-.02.051-.04.103-.063.153l-.001.003a2.732 2.732 0 0 1-.286.488h-.001a4.442 4.442 0 0 1-.101.13 3.64 3.64 0 0 1-.1.111c-.012.011-.023.024-.034.036l-.036.034-.028.028-.047.044-.026.023a.039.039 0 0 0-.008.007l-.024.02-.018.016a3.762 3.762 0 0 1-.096.076l-.018.013c-.027.021-.056.041-.085.061l-.013.009-.095.062-.005.002c-.036.023-.072.043-.109.065a3.062 3.062 0 0 1-.194.096h-.001a2.33 2.33 0 0 1-.323.119c-.064.02-.129.036-.194.05l.103-.649.088-.573.015-.106c.023-.154.04-.275.05-.356l.008-.07-.02.001a18.794 18.794 0 0 1-.775-.786v5.69c.014.002.29-1.652.514-3.046a2.61 2.61 0 0 0 .826-.31v-.001z" fill="#005C5C" fill-rule="nonzero"/><path d="M734.943 734.694c-.06-.076-.576-.606-.773-.788-.004 0-.01 0-.013.002-.114.01-.458.06-.912.13-.262.04-.562.087-.876.138l-.103.015c-1.362.22-2.944.485-2.937.503h5.615z" fill="#C4CED4" fill-rule="nonzero"/><path d="M739.317 735.113l.535-.092a30.063 30.063 0 0 0 1.695-.341s-1.008-.178-2.134-.371c-.25-.045-.505-.088-.757-.13l-.025-.005a6.062 6.062 0 0 0-1.352-1.128l.014-.031.08-.174.133-.293c.403-.885.496-1.157.496-1.157l.158-.345-1.664.941-.391.25c.064.031.127.064.187.1.747-.477 1.527-.967 1.544-.943.002.03-.39.843-.755 1.637a2.682 2.682 0 0 1 .405.744c.109.083.216.17.32.26-.086-.014-.17-.028-.251-.043.016.065.03.13.041.194 1.24.198 2.678.436 2.981.494.038.009.059.013.059.015.002.013-1.65.288-3.044.509-.013.064-.029.129-.045.192l1.268-.202c.49.775.802 1.767.802 3.107 0 3.61-2.598 6.018-5.054 6.018-1.625 0-2.49-.98-2.942-.98 0 0-1.024.538-1.48.637v-4.966c.541.339 1.263 3.904 4.513 3.904 1.12 0 2.166-.977 2.166-2.883 0-1.124-.493-1.86-1.213-2.463l.044-.273a4.407 4.407 0 0 1-.194.045c-.223 1.395-.5 3.049-.513 3.046-.014.003-.288-1.646-.509-3.041a2.16 2.16 0 0 1-.192-.043l.058.365.222 1.389c.236 1.426.42 2.306.42 2.306s.186-.88.423-2.304l.042-.266c.03-.176.07-.424.111-.686l.015-.09c.534.547.895 1.19.895 1.998 0 1.453-.734 2.475-1.842 2.475-1.884 0-2.877-1.486-3.753-3.238-.222-.443-.624-.873-1.096-.927v6.226l1.973-.714c.443.138 1.158.858 2.987.858 2.852 0 5.318-2.687 5.318-6.48 0-1.263-.27-2.276-.722-3.096l.023-.005z" fill="#0C2C56" fill-rule="nonzero"/><path d="M731.569 735.266l.085.015c.276.233.57.445.875.647a2.71 2.71 0 0 1-.208-.521.36.36 0 0 0-.027-.023.112.112 0 0 0 .022.003 2.374 2.374 0 0 1-.045-.192c-1.361-.22-2.944-.488-2.942-.5-.007-.02 1.575-.285 2.938-.504.012-.064.025-.129.041-.19l-1.197.192c-.627-.854-1.046-1.978-1.046-3.569 0-3.083 2.35-5.164 4.427-5.164.757 0 1.335.276 1.77.552.432.301.72.576.938.576 0 0 .843-.372 1.226-.526v4.437c-1.014-.734-1.3-3.636-3.646-3.636-.975 0-1.86.879-1.86 2.332 0 1.207.57 1.956 1.375 2.565a61.48 61.48 0 0 1-.048.297c.063-.016.128-.03.193-.042.22-1.388.49-3.015.503-3.012.02-.007.29 1.625.509 3.017.065.013.13.027.192.046l-.1-.632-.176-1.105c-.236-1.432-.435-2.177-.435-2.177s-.175.755-.41 2.178c0 0-.014.098-.04.25l-.098.619-.008.048c-.648-.603-1.05-1.291-1.05-2.064 0-1.108.526-1.903 1.634-1.903 1.44 0 1.98 1.654 2.839 3.122.201.345.637.636 1.03.734v-5.661s-1.313.54-1.672.662c-.61-.485-1.74-1.104-2.668-1.104-2.258 0-4.806 2.378-4.806 5.562 0 1.653.395 2.797 1.017 3.664l-.074.013c-.194.031-.377.064-.55.093-1.105.19-1.737.315-1.737.315s.87.195 2.34.441a1681.897 1681.897 0 0 0 .89.145zm2.028 1.772c-.752.479-1.498.953-1.504.941-.014-.006.347-.808.713-1.62a2.57 2.57 0 0 1-.127-.173l-.092.208-.066.144c-.534 1.182-.875 1.865-.875 1.865s.495-.219 1.85-1.08l.173-.11.12-.075a2.61 2.61 0 0 1-.192-.1z" fill="#0C2C56" fill-rule="nonzero"/><path d="M734.435 737.344l-.016-.103a2.684 2.684 0 0 1-.529-.166h-.002v-.002a2.95 2.95 0 0 1-.195-.094v-.001h-.002l-.1-.058-.004-.001c-.03-.02-.062-.039-.092-.06l-.009-.005c-.028-.02-.056-.038-.083-.059a1.672 1.672 0 0 1-.106-.08l-.02-.015-.007-.005-.028-.025a1.057 1.057 0 0 1-.102-.092l-.047-.045a3.525 3.525 0 0 1-.14-.15l-.01-.013a2.397 2.397 0 0 1-.216-.292 2.58 2.58 0 0 1-.352-.866l.882.14a23.637 23.637 0 0 0 .913.13c.05-.045.118-.111.195-.189.073-.071.151-.151.228-.229a25.277 25.277 0 0 0 .162-.168c.096-.098.168-.176.188-.202h-5.614c-.002.013 1.58.281 2.941.5.013.066.028.13.045.193.002.007.005.013.006.02.051.182.121.357.207.521a9.203 9.203 0 0 1-.874-.647 1.57 1.57 0 0 1-.085-.015l-.83-.134a.774.774 0 0 1-.06-.01c.491.524 1.103.991 1.842 1.416l.065-.144.093-.208a2.815 2.815 0 0 0 .498.558l-1.084 1.235c.006.012.751-.463 1.504-.941.062.035.127.07.191.1l-.119.074c.227.151.438.303.631.455l-.058-.366c.064.017.128.032.193.043z" fill="#005C5C" fill-rule="nonzero"/><path d="M734.946 734.696l.006.008c.085.1.575.602.765.779l.021-.002c.12-.011.454-.06.896-.127l.853-.134.105-.017c1.395-.22 3.046-.496 3.043-.509l-5.69.002z" fill="#C4CED4" fill-rule="nonzero"/><path d="M735.452 732.02l.016.105a2.604 2.604 0 0 1 .929.396l.005.002.086.062.011.008c.032.023.062.048.092.072.006.006.012.012.019.016l.02.017a.201.201 0 0 0 .02.018l.036.03.045.044.015.016a.525.525 0 0 1 .038.035l.04.043a1.577 1.577 0 0 1 .116.132 2.775 2.775 0 0 1 .216.298 2.598 2.598 0 0 1 .315.755c.008.033.016.066.022.1-.313-.05-.61-.095-.87-.135a23.52 23.52 0 0 0-.892-.128l-.018-.001-.18.18c-.221.224-.561.575-.59.61h5.692c0-.002-.021-.006-.058-.015-.304-.059-1.741-.297-2.981-.495a3.159 3.159 0 0 0-.042-.193 2.693 2.693 0 0 0-.839-1.35l1.12-1.249c-.017-.024-.797.466-1.544.944a2.672 2.672 0 0 0-.84-.317z" fill="#005C5C" fill-rule="nonzero"/></g><g><path d="M750 750h30v30h-30z"/><path d="M772.196 772.641c-.687.783-1.531 1.009-2.077 1.009h-7.897v-1.993c1.009.274 2.028.471 2.987.532 3.737.238 7.31-.78 7.31-4.287 0-1.741-1.331-3.29-4.004-3.513v-1.457h1.983l-.727-1.31h-4.098l-.727 1.31h1.982v1.47h-4.706v-4.684c1.764-.03 5.085.11 7.654 1.05l1.167-1.962c-.714.113-1.588.164-2.415-.04-.944-.234-3.822-.783-6.406-.729v-1.512h1.178V755h-4.068v1.525h1.178v1.564a4.069 4.069 0 0 0-3.51 4.025c0 2.054 1.53 3.66 3.51 3.915v3.24a20.148 20.148 0 0 1-1.333-.58l-1.098 1.433c.794.371 1.605.704 2.431.998v2.53h-1.178v1.712h10.787c1.362 0 2.436-.47 3.294-1.403l-1.217-1.318zm-11.686-8.222c-1.205-.15-1.96-1.168-1.96-2.399 0-1.151.84-2.115 1.96-2.36v4.76zm6.418 1.657v1.526h1.587v-1.489c.924.101 2.09.492 2.09 2.032 0 2.226-3.848 3.007-8.383 1.705v-3.774h4.706z" fill="#C41E3A" fill-rule="nonzero"/></g><g><path d="M780 780h30v30h-30z"/><path d="M804.62 802.728h-.18v.483h-.12v-.483h-.176v-.103h.475v.103zm.801.483h-.119v-.467h-.003l-.171.467h-.116l-.164-.467h-.004v.467h-.12v-.586h.21l.137.383.144-.383h.206v.586z" fill="#092C5C" fill-rule="nonzero"/><path d="M789.606 786.813h-3.043l-.014.007c-1.083.426-1.453 1.92-1.526 2.275l-.002.01-.472-.026-.049.396.867.046.036-.172c.058-.286.401-1.722 1.388-2.127h2.814v-.41zm7.745 4.372v11.8h1.248-.842v-11.406l.516-.013c.023-.001 1.176-.053 1.946.676.457.433.694 1.059.708 1.862l.002-.13c0-2.979-2.858-2.817-2.858-2.817-.15 0-.477 0-.649.02l-.071.008zm.838 5.645v.772l.188.015c.343.029 3.325.333 3.384 2.616.002-.047.004-.091.004-.137 0-2.555-3.292-2.863-3.575-2.885v-.38zm-3.873 1.411l-2.026-.368v-10.655h2.819c.921.382 1.327 2.038 1.43 2.538l.035.171.867-.046-.492-4.181h-.363l.445 3.784-.046.004-.089.005-.34.017c-.07-.34-.477-2.258-1.569-2.693l-.014-.005h-3.069v11.027l2.028.368v.607h-6.338l-.002.408h6.724v-.98zm.759-6.822l-2.113-.348v-.608.986s1.823.3 2.111.346l.002-.376zm8.462 6.437c-.657-.643-1.53-.906-2.17-1.014.902-.447 2.236-1.413 2.236-3.23 0-2.149-1.448-3.15-4.556-3.15h-.17c2.867.007 4.321.864 4.321 2.946 0 2.605-2.893 3.353-2.893 3.353v.004s3.732-.089 3.732 3.236c0 2.532-1.623 3.76-4.404 3.76h-6.67v-.576a.004.004 0 0 1-.003.001l.001.17v.812h6.874c2.971 0 4.608-1.408 4.608-3.964 0-.972-.305-1.76-.906-2.349z" fill="#8FBCE6" fill-rule="nonzero"/><path d="M792.962 803.763h6.671c2.781 0 4.404-1.23 4.404-3.762 0-3.325-3.731-3.236-3.731-3.236v-.004s2.893-.748 2.893-3.353c0-2.082-1.455-2.939-4.322-2.944-.012-.002-.021-.002-.031-.002h-5.883v.61l2.112.347v11.366h-.002c-.053.008-1.988.347-2.11.369v.609zm7.967-9.79c0 .044 0 .088-.002.131-.092 2.435-2.736 2.707-2.736 2.707v.4c.282.022 3.574.33 3.574 2.885 0 .046-.002.09-.004.137-.053 1.383-.952 2.752-3.096 2.752h-1.314v-11.8l.072-.008c.171-.02.497-.02.648-.02 0 0 2.858-.162 2.858 2.817z" fill="#092C5C" fill-rule="nonzero"/><path d="M787.594 798.207v.607h6.338v-.607l-2.027-.368V786.81h3.068v.002l.015.005c1.091.435 1.498 2.354 1.569 2.693l.34-.017.088-.005.047-.004-.446-3.783v-.001l-11.634.005-.403 3.374.472.026.001-.01c.074-.356.444-1.849 1.527-2.276l.014-.006h3.043v11.026s-1.866.346-2.012.368" fill="#092C5C" fill-rule="nonzero"/></g><g><path d="M810 810h30v30h-30z"/><path d="M819.592 821.321l-.004.5h-1.966l.725.915h2.108l.001-.36c0-2.005.19-3.275 2.287-3.504v-.266c-2.263.008-3.15.761-3.151 2.715zm6.783 3.508v4.406c0 .228.052.45.67.45h.312v-4.444c0-.9 1.248-1.245 1.248-1.245s-.306-.122-.617-.343l-.539.153c-.01.003-1.074.314-1.074 1.023zm5.315-8.386v5.378h-1.46l.781.976h1.612v-5.371l-.933-.983zm-5.315 5.823c0 .546.791.975 1.096 1.092l.298.116c-.227-.207-.412-.475-.412-.794v-3.749l.177.013c.53 0 1.032.18 1.45.485-.56-.52-1.44-.8-2.609-.808v3.645zm-5.031 10.22v.009l.766 1.007h6.937v-2.322l-.824-.957v2.263h-6.88z" fill="#003278" fill-rule="nonzero"/><path d="M817.671 821.35h1.46l.002-.037c0-.036-.003-.05-.012-.016 0-2.19 1.125-3.164 3.644-3.164h.45v4.133c0 .677-.457 1.075-.825 1.303.37.208.825.581.825 1.259v4.37c0 .59-.421.957-1.1.957h-.752v1.86h6.39v-1.86h-.708c-.943 0-1.141-.498-1.141-.92v-4.407c0-.676.531-1.059.946-1.267-.41-.244-.946-.665-.946-1.295v-3.899l.175-.226h.236c2.442 0 3.843 1.11 3.843 3.044l-.003.164h1.065v-4.94H817.67v4.94z" fill="#C0111F" fill-rule="nonzero"/><path d="M829.355 832.665h.248v.673h.167v-.673h.245v-.146h-.66m1.295.535h-.004l-.191-.535h-.289v.819h.167v-.652h.004l.228.652h.162l.237-.652h.004v.652h.168v-.819h-.289" fill="#003278" fill-rule="nonzero"/></g><g><path d="M840 840h30v30h-30z"/><path d="M862.427 857.059h.179v.49h.12v-.49h.18v-.107h-.479v.107zm.94.283h-.003l-.139-.39h-.21v.596h.121v-.472h.003l.167.472h.118l.171-.472h.003v.472h.122v-.596h-.21l-.143.39zm-13.173-5.524s-.144-.362.04-.728a.976.976 0 0 1 .394-.386c1.351-.908 4.216.022 4.216.022-.68-.061-1.237-.05-1.71.013.8.25 1.655.584 2.234.726.713.174 1.186.262 1.895.303l-.022-.278.394.068 1.05.178.155-.391.17-.435.334.325c.008.006.523.51.795.774l-.171-1.77-.05-.51.474.193.517.207.777-1.268.263-.433.265.433.626 1.024c.219-.89.375-1.832.832-2.268-.457.017-.78.147-1.28.498.283-.768.702-1.337 1.27-1.988a4.485 4.485 0 0 0-1.594.535c.197-.467.21-1.05.21-1.05-2.418 2.808-9.164 2.774-10.91 3.346-1.146.375-1.734 1-2.142 1.616-.04.636.423 1.244.968 1.244z" fill="#134A8E" fill-rule="nonzero"/><path fill="#1D2D5C" fill-rule="nonzero" d="M859.917 855.843l-.416.542.416-.541"/><path d="M858.79 856.756l.473-.567.256-.31-.989-.852c-.537.82-1.062 1.712-1.312 2.4l1.089-.004c-.56.692-1.638 1.837-2.362 3.107-.726-1.78-2.423-4.07-5.49-5.33-.888-.365-1.726-.847-1.618-1.55a46.397 46.397 0 0 0-5.12-.46l-.4-.006c-.111-.001-.14.043-.02.14.523.377 2.295 1.061 4.468 1.468 1.046.195 1.523.481 2.275 1.006 1.632 1.14 3.86 4.204 5.216 8.19 2.575-5 5.564-7.243 5.8-7.417l-1.53.125-.735.06zm-15.543-3.696c1.09-.047 2.622-.1 5.294-.012.227.004.45.007.666.012.134-.177.38-.337.846-.337h.138c.87.014 1.03.904 1.953.904.918 0 1.081-.885 1.942-.902.024-.002.05-.002.073-.002h3.182l-.043-.528h-3.188c-.883 0-1.04-.904-1.968-.904-.914 0-1.08.893-1.93.901-.92-.055-1.286-.826-1.357-1.48-.402.17-.61.37-.913.85-3.29.544-4.417 1.07-4.712 1.398-.044.059-.024.087.017.1zm8.543-1.36c-.065.263-.028.485-.014.6h-.309a.735.735 0 0 1 .323-.6z" fill="#1D2D5C" fill-rule="nonzero"/><path d="M851.765 851.7a.754.754 0 0 0-.298.6h.286c-.014-.115-.048-.337.012-.6z" fill="#FFF" fill-rule="nonzero"/><path d="M867.317 853.347l-.51-.176-.278-.095.099-1.188.032-.398-.395.068-1.05.178-.155-.391-.17-.435-.335.325c-.007.006-.522.51-.796.774.05-.498.172-1.756.173-1.77l.048-.51-.472.193-.214.085.06-.3c.127-.627.442-1.723 1.036-2.56 0 0-.38-.092-.962.077-.165.05-.013.004-.019.006.194-.46 1.055-1.642 1.055-1.642s-1.22-.022-1.68.257c.286-.94.048-1.672.048-1.672l-.947 1.1c-1.634 1.898-5.618 2.422-8.252 2.767-1.066.143-1.909.252-2.428.424-1.254.412-1.912 1.113-2.303 1.663l-.25.106c-.479.202-.752.464-1.02.853-2.71.461-4.278.96-4.788 1.524l-.034.042a.594.594 0 0 0-.107.507c-.018.147.013.367.272.573l.017.013c.62.448 2.47 1.147 4.678 1.56.99.184 1.417.331 2.048.903 3.142 2.845 4.685 7.116 5.384 9.2l.787-1.447c2.624-4.607 5.197-6.738 5.228-6.765l.542-.497.015.03.275.528.276-.53.104-.198 2.044.167.735.06-.472-.568-.255-.31 2.527-2.179.409-.352zm-15.95-4.39c1.747-.57 8.493-.537 10.912-3.344 0 0-.013.582-.21 1.05a4.489 4.489 0 0 1 1.593-.536c-.567.65-.987 1.22-1.27 1.988.5-.351.823-.481 1.281-.498-.457.436-.614 1.38-.832 2.268l-.626-1.024-.265-.433-.264.433-.776 1.268-.517-.207-.474-.193.05.51.17 1.77c-.271-.264-.786-.768-.795-.774l-.333-.325-.17.435-.156.391-1.05-.178-.394-.068.022.279c-.708-.042-1.181-.13-1.894-.304-.58-.142-1.435-.476-2.234-.726a7.723 7.723 0 0 1 1.71-.013s-2.865-.93-4.217-.022a.975.975 0 0 0-.394.386c-.183.367-.04.729-.04.729-.544 0-1.007-.609-.967-1.244.408-.617.995-1.242 2.141-1.617zm-8.137 4.003c.295-.328 1.422-.855 4.712-1.399.303-.478.51-.678.913-.85.072.655.436 1.426 1.357 1.481.85-.008 1.016-.9 1.93-.9.928 0 1.085.903 1.968.903h3.188l.043.528h-3.182l-.073.001c-.86.018-1.024.903-1.943.903-.922 0-1.083-.89-1.952-.904h-.138c-.466 0-.712.16-.846.337l-.665-.012c-2.673-.088-4.204-.035-5.294.012-.042-.013-.062-.041-.018-.1zm12.026 11.027c-1.357-3.985-3.584-7.048-5.216-8.189-.752-.525-1.23-.812-2.275-1.006-2.173-.407-3.945-1.091-4.468-1.468-.12-.097-.091-.141.02-.14l.4.006c1.904.063 3.584.24 5.12.46-.108.703.73 1.185 1.618 1.55 3.067 1.259 4.765 3.55 5.49 5.33.724-1.27 1.802-2.415 2.362-3.107l-1.089.004c.25-.688.775-1.58 1.312-2.4l.989.852-.255.31-.473.568.734-.061 1.531-.125c-.236.174-3.225 2.418-5.8 7.416zm8.692-8.144l.451.542-2.25-.182-.097.185-.102.197-.053-.1-.025-.049-.12-.233-1.204.098h-.002l-.886.072-.158.012.45-.541-2.758-2.38.505-.173-.116-1.428 1.298.222.247-.628s.838.815.95.922a.335.335 0 0 0 .22.106c.108 0 .19-.097.167-.334l-.01-.101c-.04-.431-.177-1.837-.177-1.84l.759.305.913-1.492.913 1.492.349-.14.412-.166c-.002.004-.137 1.41-.18 1.84-.004.045-.007.082-.01.102-.02.237.06.334.168.334.069 0 .15-.038.222-.106l.948-.922.247.628 1.3-.222-.118 1.428.505.173-2.758 2.38z" fill="#FFF" fill-rule="nonzero"/><path d="M866.318 851.863l-1.299.222-.247-.628-.949.922a.345.345 0 0 1-.22.106c-.11 0-.19-.098-.169-.334.003-.02.006-.057.01-.101.043-.431.178-1.837.18-1.84l-.413.165-.348.14-.913-1.492-.913 1.492-.76-.306.179 1.84.01.102c.021.236-.06.334-.168.334a.336.336 0 0 1-.22-.106c-.113-.107-.95-.922-.95-.922l-.247.628-1.298-.222.116 1.428-.505.173 2.757 2.38-.45.541.159-.012.886-.072 1.206-.098.12.233.025.049.053.1.102-.198.096-.184 2.25.182-.45-.541 2.758-2.38-.505-.173.117-1.428z" fill="#E8291C" fill-rule="nonzero"/></g><g><path d="M892.813 875.983c-1.77-1.418-3.378.355-3.378 1.37 1.773.377 3.352 2.15 2.644 6.755-.577 3.763-2.797 6.108-4.196 6.153a14.538 14.538 0 0 0 2.362-5.124c1.27-5.225-.763-6.912-2.373-6.99-1.955-.098-3.911 2.565-4.457 5.707-.432 2.49-.379 5.032 1.137 6.896-1.338 1.692-4.557 2.214-3.992-1.86.474-3.41 2.168-7.17 3.104-9.019l.028-.05c.503-1.03.902-1.76 1.074-2.05l-.378-.005c-3.663.063-6.572.907-7.93 2.762-1.272 1.736-1.309 3.563-.258 4.648l.154.152c.307.31.71.47 1.113.47h.003a1.413 1.413 0 0 0 1.42-1.421c0-.403-.162-.807-.47-1.114a1.62 1.62 0 0 0-.552-.362l.006-.011c.027-.067.06-.131.096-.194.245-.43.674-.823 1.234-1.105a4.372 4.372 0 0 1 1.518-.43l-.089.19c-.776 1.438-1.91 4.177-2.268 5.605-1.117 4.467.688 7.083 2.64 7.449 2.349.438 4.154-.701 5.107-2.173 1.137.72 4.138 1.137 6.394-2.88 2.597-4.63 2.691-11.456.307-13.369zm-6.642 13.23c-.446-1.085-.65-2.363-.65-3.575 0-1.464.292-2.826.797-3.625.334-.526.728-.78 1.176-.752.159.013.339.065.466.37.104.249.15.577.15.96 0 1.91-1.14 5.166-1.939 6.622z" fill="#AB0003" fill-rule="nonzero"/><path d="M886.179 892.523c-1.144 1.631-3.056 2.499-5.215 2.096-1.096-.205-2.068-1.041-2.63-2.312-.624-1.415-.714-3.27-.18-5.403.089-.357.229-.803.401-1.295-.3.265-.686.407-1.085.407h-.003c-.47 0-.926-.19-1.267-.533l-.157-.155c-1.155-1.193-1.066-3.148.239-4.93 1.348-1.84 4.183-2.783 8.103-2.85h.006l.754.01-.192.324a34.11 34.11 0 0 0-1.065 2.035l-.003.006-.028.05a39.675 39.675 0 0 0-1.714 3.899c-.677 1.801-1.154 3.511-1.367 5.048-.243 1.751.212 2.682 1.106 2.847.752.14 1.744-.293 2.389-1.021-1.309-1.714-1.576-4.017-1.071-6.93.574-3.308 2.63-5.99 4.683-5.888.997.05 1.914.628 2.45 1.685.642 1.265.72 3.125.124 5.575a14.824 14.824 0 0 1-2.074 4.74c.547-.22 1.17-.736 1.732-1.48.853-1.13 1.484-2.652 1.748-4.373.326-2.12.177-3.725-.371-4.833-.46-.93-1.193-1.482-2.102-1.675l-.173-.036v-.177c0-.613.47-1.368 1.127-1.783.794-.5 1.73-.46 2.605.242 2.507 2.01 2.369 8.972-.252 13.645-1.052 1.873-2.345 2.953-3.752 3.322-1.01.265-2.031.132-2.766-.257zm.025-3.849c.855-1.755 1.688-4.55 1.688-6.083 0-.368-.045-.664-.133-.876-.076-.18-.144-.225-.279-.236-.357-.023-.682.185-.977.65-.476.753-.764 2.07-.764 3.509 0 1.064.159 2.12.465 3.036z" stroke="#FFF" stroke-width=".5"/><path d="M870 870h30v30h-30z"/></g></g></svg>